<?xml version="1.0" encoding="UTF-8"?>
<svg version="1.1" xmlns="http://www.w3.org/2000/svg" width="180" height="149">
<path d="M0 0 C59.4 0 118.8 0 180 0 C180 49.17 180 98.34 180 149 C120.6 149 61.2 149 0 149 C0 99.83 0 50.66 0 0 Z " fill="#010403" transform="translate(0,0)"/>
<path d="M0 0 C6.69331419 5.14124134 11.75844288 10.70659081 16 18 C12.59954404 20.86869901 9.25689473 23.04934089 5.296875 25.06640625 C4.2346875 25.63552734 3.1725 26.20464844 2.078125 26.79101562 C-0.14163314 27.97254182 -2.3763733 29.12633849 -4.625 30.25195312 C-10.64994922 33.34482823 -10.64994922 33.34482823 -13.95507812 38.91748047 C-14.2082539 41.67984062 -14.25003847 44.24046737 -14 47 C-12.35 46.67 -10.7 46.34 -9 46 C-8.67 44.68 -8.34 43.36 -8 42 C-8.66 41.67 -9.32 41.34 -10 41 C-9.34 40.01 -8.68 39.02 -8 38 C-6.50482688 40.99034624 -6.91933366 44.03473688 -6.97265625 47.30859375 C-6.98530246 48.79231538 -6.99766342 50.27603946 -7.00976562 51.75976562 C-7.03459551 54.10139577 -7.06257695 56.44289922 -7.09594727 58.78442383 C-7.12613721 61.04248876 -7.14392059 63.30039146 -7.16015625 65.55859375 C-7.17361588 66.2586705 -7.1870755 66.95874725 -7.20094299 67.68003845 C-7.21998552 71.36597424 -7.10504797 72.84242804 -5 76 C-8.66240092 74.43039961 -9.93903646 73.06096354 -13 70 C-13 74.29 -13 78.58 -13 83 C-12.34 83.33 -11.68 83.66 -11 84 C-12.65 84.66 -14.3 85.32 -16 86 C-15.67 84.02 -15.34 82.04 -15 80 C-18.96 80 -22.92 80 -27 80 C-27 81.98 -27 83.96 -27 86 C-27.33 86 -27.66 86 -28 86 C-28 84.02 -28 82.04 -28 80 C-29.65 80 -31.3 80 -33 80 C-33 82.97 -33 85.94 -33 89 C-31.02 89 -29.04 89 -27 89 C-27 89.33 -27 89.66 -27 90 C-28.98 90 -30.96 90 -33 90 C-33 94.95 -33 99.9 -33 105 C-28.38 104.34 -23.76 103.68 -19 103 C-22.8466088 106.8466088 -28.21908174 106.05641991 -33.375 106.0625 C-35.25004775 106.04653244 -37.12508307 106.02730462 -39 106 C-39.33 107.65 -39.66 109.3 -40 111 C-38.35 111 -36.7 111 -35 111 C-35 109.68 -35 108.36 -35 107 C-34.34 107 -33.68 107 -33 107 C-33 108.65 -33 110.3 -33 112 C-35.64 112 -38.28 112 -41 112 C-41 109.69 -41 107.38 -41 105 C-42.485 104.505 -42.485 104.505 -44 104 C-41.03 104.33 -38.06 104.66 -35 105 C-35 100.05 -35 95.1 -35 90 C-36.98 90 -38.96 90 -41 90 C-41 86.7 -41 83.4 -41 80 C-42.65 80 -44.3 80 -46 80 C-46 82.64 -46 85.28 -46 88 C-44.515 88.495 -44.515 88.495 -43 89 C-44.98 88.67 -46.96 88.34 -49 88 C-48.34 87.67 -47.68 87.34 -47 87 C-47 84.36 -47 81.72 -47 79 C-48.98 79 -50.96 79 -53 79 C-53.99 74.545 -53.99 74.545 -55 70 C-58.03268602 72.83656989 -58.03268602 72.83656989 -60 76 C-60.66 76.66 -61.32 77.32 -62 78 C-60.515 78.495 -60.515 78.495 -59 79 C-57.61423077 80.62332967 -56.27358732 82.28724465 -55 84 C-59.875 82.125 -59.875 82.125 -61 81 C-63.3295947 80.49758678 -63.3295947 80.49758678 -66 81 C-69.04948889 83.4257298 -70.72274901 85.04028505 -71.8125 88.8125 C-71.9053125 89.8953125 -71.9053125 89.8953125 -72 91 C-73.32 89.68 -74.64 88.36 -76 87 C-75.52949219 86.61328125 -75.05898437 86.2265625 -74.57421875 85.828125 C-71.3182388 83.10469664 -68.34546467 80.58718126 -66 77 C-67.37485532 75.45833358 -67.37485532 75.45833358 -69 74 C-69.66 74 -70.32 74 -71 74 C-71.33 72.35 -71.66 70.7 -72 69 C-72.33 69 -72.66 69 -73 69 C-73.99 64.05 -73.99 64.05 -75 59 C-74.67 59 -74.34 59 -74 59 C-73.67 55.37 -73.34 51.74 -73 48 C-73.99 48 -74.98 48 -76 48 C-75.505 52.455 -75.505 52.455 -75 57 C-75.33 57 -75.66 57 -76 57 C-76.495 52.545 -76.495 52.545 -77 48 C-81.62 48 -86.24 48 -91 48 C-91 49.98 -91 51.96 -91 54 C-92.65 54 -94.3 54 -96 54 C-96 53.34 -96 52.68 -96 52 C-95.01 52 -94.02 52 -93 52 C-93 51.01 -93 50.02 -93 49 C-94.98 49 -96.96 49 -99 49 C-99 48.01 -99 47.02 -99 46 C-97.02 46 -95.04 46 -93 46 C-93 45.01 -93 44.02 -93 43 C-93.99 43 -94.98 43 -96 43 C-96 42.34 -96 41.68 -96 41 C-94.515 40.505 -94.515 40.505 -93 40 C-93.33 38.35 -93.66 36.7 -94 35 C-101.59 35 -109.18 35 -117 35 C-116.63333782 40.98314141 -116.63333782 40.98314141 -116.25170898 46.96533203 C-115.99444471 51.48068077 -116.01414174 55.54538121 -117 60 C-113.04 60 -109.08 60 -105 60 C-104.505 58.515 -104.505 58.515 -104 57 C-104 59.31 -104 61.62 -104 64 C-104.33 63.01 -104.66 62.02 -105 61 C-108.96 61 -112.92 61 -117 61 C-117 63.31 -117 65.62 -117 68 C-117.33 68 -117.66 68 -118 68 C-118 65.69 -118 63.38 -118 61 C-120.31 61 -122.62 61 -125 61 C-126.23671084 58.52657832 -126.12931819 56.86140689 -126.1328125 54.09765625 C-126.13410156 53.12505859 -126.13539062 52.15246094 -126.13671875 51.15039062 C-126.13285156 50.13138672 -126.12898438 49.11238281 -126.125 48.0625 C-126.12886719 47.04736328 -126.13273437 46.03222656 -126.13671875 44.98632812 C-126.13542969 44.01244141 -126.13414063 43.03855469 -126.1328125 42.03515625 C-126.13168457 41.1419165 -126.13055664 40.24867676 -126.12939453 39.32836914 C-126 37 -126 37 -125 34 C-122.69 34 -120.38 34 -118 34 C-118 29.71 -118 25.42 -118 21 C-117.34 21.33 -116.68 21.66 -116 22 C-116.33 25.96 -116.66 29.92 -117 34 C-113.04 34 -109.08 34 -105 34 C-105 31.36 -105 28.72 -105 26 C-104.67 26 -104.34 26 -104 26 C-104 28.64 -104 31.28 -104 34 C-101.87436897 33.88623383 -99.7494739 33.75864369 -97.625 33.625 C-96.44164063 33.55539063 -95.25828125 33.48578125 -94.0390625 33.4140625 C-90.89437681 33.29782654 -90.89437681 33.29782654 -89 31 C-89 31.99 -89 32.98 -89 34 C-88.01 34 -87.02 34 -86 34 C-86 32.35 -86 30.7 -86 29 C-86.99 29.33 -87.98 29.66 -89 30 C-87.11396703 18.0622686 -78.27871596 7.98599829 -69.0625 0.6875 C-48.1072756 -13.97287438 -21.30873088 -14.22689747 0 0 Z " fill="#022915" transform="translate(126,28)"/>
<path d="M0 0 C0.66 0.33 1.32 0.66 2 1 C2.4140625 3.46875 2.4140625 3.46875 2.625 6.5 C2.69976562 7.5003125 2.77453125 8.500625 2.8515625 9.53125 C3 12 3 12 3 13 C3.33 13 3.66 13 4 13 C4 14.65 4 16.3 4 18 C3.34 18 2.68 18 2 18 C1.67 19.32 1.34 20.64 1 22 C1.99 22 2.98 22 4 22 C4.495 20.515 4.495 20.515 5 19 C5 19.99 5 20.98 5 22 C9.62 22 14.24 22 19 22 C17.85569083 14.14063372 17.85569083 14.14063372 15.8125 6.5 C14.94116295 3.81896292 15.00097317 2.59746977 16 0 C16.99 1.98 17.98 3.96 19 6 C19.99 6 20.98 6 22 6 C21.34 9.3 20.68 12.6 20 16 C20.99 16 21.98 16 23 16 C23 16.66 23 17.32 23 18 C22.34 18 21.68 18 21 18 C21 18.99 21 19.98 21 21 C22.98 21 24.96 21 27 21 C27 21.99 27 22.98 27 24 C25.02 24 23.04 24 21 24 C21 24.99 21 25.98 21 27 C21.66 27 22.32 27 23 27 C23 27.66 23 28.32 23 29 C22.01 29 21.02 29 20 29 C20.495 30.485 20.495 30.485 21 32 C21.66 32 22.32 32 23 32 C23.495 33.98 23.495 33.98 24 36 C23.01 36.495 23.01 36.495 22 37 C22 37.66 22 38.32 22 39 C21.34 39 20.68 39 20 39 C20 48.24 20 57.48 20 67 C29.57 67 39.14 67 49 67 C49 67.33 49 67.66 49 68 C43.72 68 38.44 68 33 68 C32.505 69.98 32.505 69.98 32 72 C32 70.68 32 69.36 32 68 C28.04 68 24.08 68 20 68 C20 73.94 20 79.88 20 86 C23.96 86 27.92 86 32 86 C32 84.02 32 82.04 32 80 C32.33 80 32.66 80 33 80 C33 81.98 33 83.96 33 86 C38.28 86 43.56 86 49 86 C49 86.33 49 86.66 49 87 C43.72 87 38.44 87 33 87 C33 89.64 33 92.28 33 95 C31.515 94.01 31.515 94.01 30 93 C30.66 93 31.32 93 32 93 C32 91.02 32 89.04 32 87 C28.04 87 24.08 87 20 87 C20 88.98 20 90.96 20 93 C22.31 93 24.62 93 27 93 C27 93.33 27 93.66 27 94 C24.36 94.33 21.72 94.66 19 95 C19 92.36 19 89.72 19 87 C15.37 87 11.74 87 8 87 C8 86.67 8 86.34 8 86 C11.63 86 15.26 86 19 86 C19 80.06 19 74.12 19 68 C12.51624304 67.9271488 6.38559213 67.9130907 0 69 C-0.99 69 -1.98 69 -3 69 C-3 70.65 -3 72.3 -3 74 C-3.99 74 -4.98 74 -6 74 C-6 74.99 -6 75.98 -6 77 C-6.66 77 -7.32 77 -8 77 C-8 76.34 -8 75.68 -8 75 C-9.32 74.67 -10.64 74.34 -12 74 C-12.33 75.32 -12.66 76.64 -13 78 C-13.495 77.01 -13.495 77.01 -14 76 C-15.485 76.99 -15.485 76.99 -17 78 C-17.33 80.64 -17.66 83.28 -18 86 C-12.06 86 -6.12 86 0 86 C0 81.71 0 77.42 0 73 C0.33 73 0.66 73 1 73 C1 77.29 1 81.58 1 86 C2.65 86 4.3 86 6 86 C6 86.33 6 86.66 6 87 C4.35 87 2.7 87 1 87 C1 89.64 1 92.28 1 95 C0.67 95 0.34 95 0 95 C0 92.36 0 89.72 0 87 C-7.59 87 -15.18 87 -23 87 C-21.02 86.505 -21.02 86.505 -19 86 C-19 83.36 -19 80.72 -19 78 C-19.99 78.495 -19.99 78.495 -21 79 C-21 80.32 -21 81.64 -21 83 C-21.66 83 -22.32 83 -23 83 C-23.33 82.34 -23.66 81.68 -24 81 C-24.99 81.495 -24.99 81.495 -26 82 C-26 81.01 -26 80.02 -26 79 C-31.445 79.495 -31.445 79.495 -37 80 C-37 71.75 -37 63.5 -37 55 C-31.06 55 -25.12 55 -19 55 C-19 56.65 -19 58.3 -19 60 C-17.60843516 58.83722968 -17.60843516 58.83722968 -17.90234375 55.62109375 C-17.90901631 54.22652923 -17.92097468 52.83198257 -17.9375 51.4375 C-17.94201172 50.72658203 -17.94652344 50.01566406 -17.95117188 49.28320312 C-17.96299136 47.52209987 -17.98092737 45.76103964 -18 44 C-15.36 45.98 -12.72 47.96 -10 50 C-10.66 49.34 -11.32 48.68 -12 48 C-12.17495606 45.49079154 -12.23169569 43.09375059 -12.1953125 40.5859375 C-12.1924826 39.85629791 -12.18965271 39.12665833 -12.18673706 38.37490845 C-12.17553002 36.04143972 -12.1504251 33.70835297 -12.125 31.375 C-12.11497085 29.79427637 -12.10584489 28.21354673 -12.09765625 26.6328125 C-12.07558905 22.75506086 -12.04105615 18.87759522 -12 15 C-12 17.42797311 -12.50085685 19.62907005 -13 22 C-14.65 22 -16.3 22 -18 22 C-18.54743291 18.2017618 -18.75173585 14.77956082 -18 11 C-15.44997379 8.14302619 -12.40058377 6.6849278 -9 5 C-7.35358754 4.02180741 -5.70772394 3.04269024 -4.0625 2.0625 C-1.84765625 0.78515625 -1.84765625 0.78515625 0 0 Z " fill="#020E08" transform="translate(130,53)"/>
<path d="M0 0 C5.97722711 -0.17380102 11.95296556 -0.30042298 17.93212891 -0.38452148 C19.96331419 -0.41959766 21.99432433 -0.46727355 24.02490234 -0.52807617 C26.95454195 -0.6135659 29.88183526 -0.65281564 32.8125 -0.68359375 C33.71178223 -0.71972275 34.61106445 -0.75585175 35.53759766 -0.79307556 C41.8312061 -0.7969435 44.91570261 0.84277453 49.40368652 5.23376465 C51.32504413 7.35964391 52.99738352 9.49574822 54.5 11.9375 C55.22703125 13.09572266 55.22703125 13.09572266 55.96875 14.27734375 C56.3090625 14.84582031 56.649375 15.41429687 57 16 C53.4801167 18.95026386 49.91359821 21.32191316 45.9140625 23.57421875 C45.33961899 23.89985809 44.76517548 24.22549744 44.17332458 24.56100464 C42.32619675 25.60732678 40.47581093 26.64770882 38.625 27.6875 C36.0935687 29.11457395 33.56374363 30.54445582 31.03515625 31.9765625 C30.41936203 32.32507767 29.80356781 32.67359283 29.16911316 33.03266907 C25.73478597 34.98513756 22.34364101 36.98832062 18.99609375 39.0859375 C18.31144043 39.51430908 17.62678711 39.94268066 16.92138672 40.3840332 C15.20155068 41.47434691 13.49282549 42.58213362 11.78515625 43.69140625 C8.55193911 45.21051949 7.3193574 45.18628041 4 44 C0.6875 42.125 0.6875 42.125 -2 40 C-2 37 -2 37 -1 36 C-0.76807135 34.48530552 -0.58784762 32.96245438 -0.4375 31.4375 C-0.31181641 30.19806641 -0.31181641 30.19806641 -0.18359375 28.93359375 C-0.12300781 28.29550781 -0.06242187 27.65742187 0 27 C-0.66 26.67 -1.32 26.34 -2 26 C-1.67 24.35 -1.34 22.7 -1 21 C-1.99 20.67 -2.98 20.34 -4 20 C-2.68 19.67 -1.36 19.34 0 19 C-0.0868276 16.87422093 -0.1949951 14.74930419 -0.3125 12.625 C-0.37050781 11.44164062 -0.42851563 10.25828125 -0.48828125 9.0390625 C-0.65714844 8.03617188 -0.82601562 7.03328125 -1 6 C-1.99 5.34 -2.98 4.68 -4 4 C-2.68 3.67 -1.36 3.34 0 3 C0 2.01 0 1.02 0 0 Z " fill="#41C37F" transform="translate(85,30)"/>
<path d="M0 0 C0.495 0.99 0.495 0.99 1 2 C-12.86 2 -26.72 2 -41 2 C-41 2.99 -41 3.98 -41 5 C-41.66 5.33 -42.32 5.66 -43 6 C-42.34 6.66 -41.68 7.32 -41 8 C-40.8046875 11.0390625 -40.8046875 11.0390625 -40.875 14.625 C-40.89304688 15.81351563 -40.91109375 17.00203125 -40.9296875 18.2265625 C-40.95289063 19.14179687 -40.97609375 20.05703125 -41 21 C-41.99 21.33 -42.98 21.66 -44 22 C-43.01 22.495 -43.01 22.495 -42 23 C-42.020625 23.804375 -42.04125 24.60875 -42.0625 25.4375 C-42.29633621 27.93354885 -42.29633621 27.93354885 -41 29 C-40.83203125 30.9609375 -40.83203125 30.9609375 -40.8125 33.375 C-40.79832031 34.16648438 -40.78414062 34.95796875 -40.76953125 35.7734375 C-41 38 -41 38 -43 41 C-42.0925 41.598125 -41.185 42.19625 -40.25 42.8125 C-37.77098519 44.48106766 -35.36682089 46.17936855 -33 48 C-35.64 48 -38.28 48 -41 48 C-41 47.34 -41 46.68 -41 46 C-42.32 45.67 -43.64 45.34 -45 45 C-45 46.98 -45 48.96 -45 51 C-45.33 51 -45.66 51 -46 51 C-46 49.02 -46 47.04 -46 45 C-47.670625 44.7215625 -47.670625 44.7215625 -49.375 44.4375 C-50.57125 43.963125 -51.7675 43.48875 -53 43 C-54.25 39.4375 -54.25 39.4375 -55 36 C-56.485 35.505 -56.485 35.505 -58 35 C-58.33 36.65 -58.66 38.3 -59 40 C-59.66 39.67 -60.32 39.34 -61 39 C-61 37.68 -61 36.36 -61 35 C-64.3 35 -67.6 35 -71 35 C-71 34.67 -71 34.34 -71 34 C-69.35 34 -67.7 34 -66 34 C-66 32.35 -66 30.7 -66 29 C-67.94603274 28.40929986 -67.94603274 28.40929986 -70 28 C-71.96822886 29.96822886 -71.66248381 33.34808709 -72 36 C-72.99 36 -73.98 36 -75 36 C-74.83701416 35.28432861 -74.67402832 34.56865723 -74.50610352 33.83129883 C-74.00807929 31.04519803 -73.8858165 28.52537792 -73.90234375 25.69921875 C-73.90556641 24.72275391 -73.90878906 23.74628906 -73.91210938 22.74023438 C-73.92048828 21.73283203 -73.92886719 20.72542969 -73.9375 19.6875 C-73.94201172 18.66076172 -73.94652344 17.63402344 -73.95117188 16.57617188 C-73.96291816 14.05072118 -73.97934435 11.52539095 -74 9 C-75.32 9.33 -76.64 9.66 -78 10 C-59.37382074 -14.01796799 -24.45497254 -16.33442823 0 0 Z " fill="#22A561" transform="translate(126,28)"/>
<path d="M0 0 C0.66 0.33 1.32 0.66 2 1 C2.4140625 3.46875 2.4140625 3.46875 2.625 6.5 C2.69976562 7.5003125 2.77453125 8.500625 2.8515625 9.53125 C3 12 3 12 3 13 C3.33 13 3.66 13 4 13 C4 14.65 4 16.3 4 18 C3.34 18 2.68 18 2 18 C1.67 19.32 1.34 20.64 1 22 C1.99 22 2.98 22 4 22 C4.33 21.01 4.66 20.02 5 19 C5 19.99 5 20.98 5 22 C9.62 22 14.24 22 19 22 C17.85569083 14.14063372 17.85569083 14.14063372 15.8125 6.5 C14.94116295 3.81896292 15.00097317 2.59746977 16 0 C16.99 1.98 17.98 3.96 19 6 C19.99 6 20.98 6 22 6 C21.34 9.3 20.68 12.6 20 16 C20.99 16 21.98 16 23 16 C23 16.66 23 17.32 23 18 C22.34 18 21.68 18 21 18 C21 18.99 21 19.98 21 21 C22.98 21 24.96 21 27 21 C27 21.99 27 22.98 27 24 C25.02 24 23.04 24 21 24 C21 24.99 21 25.98 21 27 C21.66 27 22.32 27 23 27 C23 27.66 23 28.32 23 29 C22.01 29 21.02 29 20 29 C20.495 30.485 20.495 30.485 21 32 C21.66 32 22.32 32 23 32 C23.495 33.98 23.495 33.98 24 36 C23.01 36.495 23.01 36.495 22 37 C22 37.66 22 38.32 22 39 C21.01 38.67 20.02 38.34 19 38 C18.01 39.32 17.02 40.64 16 42 C16.33 40.02 16.66 38.04 17 36 C12.05 36 7.1 36 2 36 C1.67 41.94 1.34 47.88 1 54 C5.455 53.505 5.455 53.505 10 53 C10.33 52.01 10.66 51.02 11 50 C12.9375 50.3125 12.9375 50.3125 15 51 C15.33 51.99 15.66 52.98 16 54 C14.68 54.66 13.36 55.32 12 56 C12.33 56.66 12.66 57.32 13 58 C11.515 58.495 11.515 58.495 10 59 C9.34 58.67 8.68 58.34 8 58 C7.7525 58.61875 7.505 59.2375 7.25 59.875 C5.77952822 62.37480203 4.58596924 62.83316022 2 64 C1.22076172 63.13375 1.22076172 63.13375 0.42578125 62.25 C-0.62029297 61.13625 -0.62029297 61.13625 -1.6875 60 C-2.37199219 59.2575 -3.05648437 58.515 -3.76171875 57.75 C-5.88185569 55.79228938 -5.88185569 55.79228938 -8.64453125 55.625 C-11.18445107 55.7930255 -11.18445107 55.7930255 -13 58 C-15.475 58.495 -15.475 58.495 -18 59 C-18 54.05 -18 49.1 -18 44 C-15.36 45.98 -12.72 47.96 -10 50 C-10.66 49.34 -11.32 48.68 -12 48 C-12.17495606 45.49079154 -12.23169569 43.09375059 -12.1953125 40.5859375 C-12.1924826 39.85629791 -12.18965271 39.12665833 -12.18673706 38.37490845 C-12.17553002 36.04143972 -12.1504251 33.70835297 -12.125 31.375 C-12.11497085 29.79427637 -12.10584489 28.21354673 -12.09765625 26.6328125 C-12.07558905 22.75506086 -12.04105615 18.87759522 -12 15 C-12 17.42797311 -12.50085685 19.62907005 -13 22 C-14.65 22 -16.3 22 -18 22 C-18.54743291 18.2017618 -18.75173585 14.77956082 -18 11 C-15.44997379 8.14302619 -12.40058377 6.6849278 -9 5 C-7.35358754 4.02180741 -5.70772394 3.04269024 -4.0625 2.0625 C-1.84765625 0.78515625 -1.84765625 0.78515625 0 0 Z " fill="#031C0F" transform="translate(130,53)"/>
<path d="M0 0 C0.66 0.33 1.32 0.66 2 1 C2.05855176 4.52076232 2.0937806 8.0413976 2.125 11.5625 C2.14175781 12.55314453 2.15851562 13.54378906 2.17578125 14.56445312 C2.21274359 20.12728491 1.87082551 24.74843075 0 30 C0.66 30.66 1.32 31.32 2 32 C2 34.31 2 36.62 2 39 C-3.94 39 -9.88 39 -16 39 C-16.33 41.31 -16.66 43.62 -17 46 C-18.32 46 -19.64 46 -21 46 C-21 45.34 -21 44.68 -21 44 C-20.01 44 -19.02 44 -18 44 C-18 43.01 -18 42.02 -18 41 C-19.98 41 -21.96 41 -24 41 C-24 40.01 -24 39.02 -24 38 C-22.02 38 -20.04 38 -18 38 C-18 37.01 -18 36.02 -18 35 C-18.99 35 -19.98 35 -21 35 C-21 34.34 -21 33.68 -21 33 C-19.515 32.505 -19.515 32.505 -18 32 C-18.33 30.35 -18.66 28.7 -19 27 C-26.59 27 -34.18 27 -42 27 C-41.63333782 32.98314141 -41.63333782 32.98314141 -41.25170898 38.96533203 C-40.99444471 43.48068077 -41.01414174 47.54538121 -42 52 C-38.04 52 -34.08 52 -30 52 C-29.67 51.01 -29.34 50.02 -29 49 C-29 51.31 -29 53.62 -29 56 C-29.33 55.01 -29.66 54.02 -30 53 C-33.96 53 -37.92 53 -42 53 C-42 55.31 -42 57.62 -42 60 C-42.33 60 -42.66 60 -43 60 C-43 57.69 -43 55.38 -43 53 C-45.31 53 -47.62 53 -50 53 C-51.23671084 50.52657832 -51.12931819 48.86140689 -51.1328125 46.09765625 C-51.13410156 45.12505859 -51.13539062 44.15246094 -51.13671875 43.15039062 C-51.13285156 42.13138672 -51.12898438 41.11238281 -51.125 40.0625 C-51.12886719 39.04736328 -51.13273437 38.03222656 -51.13671875 36.98632812 C-51.13542969 36.01244141 -51.13414063 35.03855469 -51.1328125 34.03515625 C-51.13168457 33.1419165 -51.13055664 32.24867676 -51.12939453 31.32836914 C-51 29 -51 29 -50 26 C-47.69 26 -45.38 26 -43 26 C-43 21.71 -43 17.42 -43 13 C-42.34 13.33 -41.68 13.66 -41 14 C-41.33 17.96 -41.66 21.92 -42 26 C-38.04 26 -34.08 26 -30 26 C-30 23.36 -30 20.72 -30 18 C-29.67 18 -29.34 18 -29 18 C-29 20.64 -29 23.28 -29 26 C-26.87436897 25.88623383 -24.7494739 25.75864369 -22.625 25.625 C-21.44164063 25.55539063 -20.25828125 25.48578125 -19.0390625 25.4140625 C-15.89437681 25.29782654 -15.89437681 25.29782654 -14 23 C-14 23.99 -14 24.98 -14 26 C-13.01 26 -12.02 26 -11 26 C-11 24.35 -11 22.7 -11 21 C-11.99 21.33 -12.98 21.66 -14 22 C-13.40077751 17.97351715 -12.10666692 14.98182467 -10.125 11.4375 C-9.61195312 10.50808594 -9.09890625 9.57867187 -8.5703125 8.62109375 C-4.3247451 1.53458697 -4.3247451 1.53458697 0 0 Z " fill="#010604" transform="translate(51,36)"/>
<path d="M0 0 C2 2 2 2 2.125 4.625 C2.08375 5.40875 2.0425 6.1925 2 7 C4.20152247 7.50753344 4.20152247 7.50753344 7 7 C9.53572282 5.20822891 11.77174488 3.15761879 14 1 C14.495 4.465 14.495 4.465 15 8 C18.465 7.505 18.465 7.505 22 7 C22.99 8.65 23.98 10.3 25 12 C24.32759277 12.38631592 23.65518555 12.77263184 22.96240234 13.1706543 C20.35507666 14.66950143 17.74836099 16.16940248 15.14212036 17.6701355 C13.96623671 18.34711388 12.79019151 19.02381175 11.61398315 19.70022583 C5.20844161 23.38503996 -1.18082207 27.09149087 -7.51953125 30.890625 C-8.51968262 31.48915283 -9.51983398 32.08768066 -10.55029297 32.7043457 C-12.44725006 33.84306534 -14.34092368 34.98727618 -16.23095703 36.13745117 C-17.08157715 36.64767822 -17.93219727 37.15790527 -18.80859375 37.68359375 C-19.54907959 38.13275146 -20.28956543 38.58190918 -21.05249023 39.04467773 C-23 40 -23 40 -26 40 C-26 35.71 -26 31.42 -26 27 C-23.69 27 -21.38 27 -19 27 C-19 26.38511719 -19 25.77023438 -19 25.13671875 C-19 21.7578125 -19 18.37890625 -19 15 C-15.25 13.875 -15.25 13.875 -13 15 C-13 14.01 -13 13.02 -13 12 C-13.99 11.67 -14.98 11.34 -16 11 C-16.33 9.02 -16.66 7.04 -17 5 C-13.535 4.505 -13.535 4.505 -10 4 C-10 4.66 -10 5.32 -10 6 C-9.34 6 -8.68 6 -8 6 C-8 6.66 -8 7.32 -8 8 C-7.34 8 -6.68 8 -6 8 C-6.33 6.02 -6.66 4.04 -7 2 C-5.02 2.66 -3.04 3.32 -1 4 C-0.67 2.68 -0.34 1.36 0 0 Z " fill="#59DD98" transform="translate(117,35)"/>
<path d="M0 0 C0 1.32 0 2.64 0 4 C-2.31 4 -4.62 4 -7 4 C-6.91878906 4.95261719 -6.83757812 5.90523437 -6.75390625 6.88671875 C-6.24413924 17.00923514 -6.24413924 17.00923514 -8.55859375 20.04296875 C-10.5 21.375 -10.5 21.375 -14 23 C-11.53721199 24.231394 -9.7204945 24.07159196 -7 24 C-6.97311849 25.64574566 -6.95365877 27.29161413 -6.9375 28.9375 C-6.92589844 29.85402344 -6.91429688 30.77054688 -6.90234375 31.71484375 C-7 34 -7 34 -8 35 C-7.319375 35.680625 -6.63875 36.36125 -5.9375 37.0625 C-5.48761719 37.51367188 -5.03773437 37.96484375 -4.57421875 38.4296875 C-3.43607014 39.56501192 -2.29208825 40.69449869 -1.14453125 41.8203125 C-0.51933594 42.43648437 0.10585937 43.05265625 0.75 43.6875 C1.34296875 44.26886719 1.9359375 44.85023437 2.546875 45.44921875 C4 47 4 47 5 49 C7.93628823 51.55329411 10.76242867 53.84161911 14 56 C11.36 56 8.72 56 6 56 C6 55.34 6 54.68 6 54 C4.68 53.67 3.36 53.34 2 53 C2 54.98 2 56.96 2 59 C1.67 59 1.34 59 1 59 C1 57.02 1 55.04 1 53 C-0.670625 52.7215625 -0.670625 52.7215625 -2.375 52.4375 C-3.57125 51.963125 -4.7675 51.48875 -6 51 C-7.25 47.4375 -7.25 47.4375 -8 44 C-9.485 43.505 -9.485 43.505 -11 43 C-11.33 44.65 -11.66 46.3 -12 48 C-12.66 47.67 -13.32 47.34 -14 47 C-14 45.68 -14 44.36 -14 43 C-17.3 43 -20.6 43 -24 43 C-24 42.67 -24 42.34 -24 42 C-22.35 42 -20.7 42 -19 42 C-19 40.35 -19 38.7 -19 37 C-20.94603274 36.40929986 -20.94603274 36.40929986 -23 36 C-24.96822886 37.96822886 -24.66248381 41.34808709 -25 44 C-25.99 44 -26.98 44 -28 44 C-27.83701416 43.28432861 -27.67402832 42.56865723 -27.50610352 41.83129883 C-27.00807929 39.04519803 -26.8858165 36.52537792 -26.90234375 33.69921875 C-26.90556641 32.72275391 -26.90878906 31.74628906 -26.91210938 30.74023438 C-26.92048828 29.73283203 -26.92886719 28.72542969 -26.9375 27.6875 C-26.94201172 26.66076172 -26.94652344 25.63402344 -26.95117188 24.57617188 C-26.96291816 22.05072118 -26.97934435 19.52539095 -27 17 C-28.32 17.33 -29.64 17.66 -31 18 C-25.67543394 11.13411219 -9.48043665 -4.74021832 0 0 Z " fill="#088545" transform="translate(79,20)"/>
<path d="M0 0 C0.66 0.33 1.32 0.66 2 1 C1.34 1.66 0.68 2.32 0 3 C0.99 3.33 1.98 3.66 3 4 C3 5.65 3 7.3 3 9 C5.475 9.495 5.475 9.495 8 10 C8.33 11.32 8.66 12.64 9 14 C9.66 12.68 10.32 11.36 11 10 C12.32 10.33 13.64 10.66 15 11 C15.1546875 12.6396875 15.1546875 12.6396875 15.3125 14.3125 C15.72957281 16.30631351 15.72957281 16.30631351 17 18 C20.56168747 19.56261629 24.17910584 20.32910721 28 21 C28 21.66 28 22.32 28 23 C30.31 23 32.62 23 35 23 C33.02 25.64 31.04 28.28 29 31 C31.29629994 32.14814997 33.07698086 32.30769809 35.625 32.5625 C36.44226563 32.64628906 37.25953125 32.73007813 38.1015625 32.81640625 C39.04128906 32.90728516 39.04128906 32.90728516 40 33 C38.296875 34.0859375 38.296875 34.0859375 36 35 C33.703125 34.4765625 33.703125 34.4765625 31.25 33.625 C28.64494555 32.8785489 28.64494555 32.8785489 26 33 C22.73749494 35.2029777 20.38842269 37.89104756 18 41 C18.33 41.99 18.66 42.98 19 44 C16.625 43.8125 16.625 43.8125 14 43 C12.875 40.5625 12.875 40.5625 12 38 C11.01 37.34 10.02 36.68 9 36 C8.48828125 32.9609375 8.48828125 32.9609375 8.3125 29.375 C8.24675781 28.18648437 8.18101563 26.99796875 8.11328125 25.7734375 C8.07589844 24.85820313 8.03851563 23.94296875 8 23 C4.37 23 0.74 23 -3 23 C-2.67 29.6 -2.34 36.2 -2 43 C-2.99 43.495 -2.99 43.495 -4 44 C-4.66 40.7 -5.32 37.4 -6 34 C-5.67 34 -5.34 34 -5 34 C-4.67 30.37 -4.34 26.74 -4 23 C-4.99 23 -5.98 23 -7 23 C-6.67 25.97 -6.34 28.94 -6 32 C-6.33 32 -6.66 32 -7 32 C-7.33 29.03 -7.66 26.06 -8 23 C-12.62 23 -17.24 23 -22 23 C-22 24.98 -22 26.96 -22 29 C-22.33 29 -22.66 29 -23 29 C-23 24.71 -23 20.42 -23 16 C-22.67 16 -22.34 16 -22 16 C-22 17.98 -22 19.96 -22 22 C-17.38 22 -12.76 22 -8 22 C-7.67 21.01 -7.34 20.02 -7 19 C-7 19.99 -7 20.98 -7 22 C-6.01 22 -5.02 22 -4 22 C-4.33 19.69 -4.66 17.38 -5 15 C-5.66 15.66 -6.32 16.32 -7 17 C-7.1875 14.625 -7.1875 14.625 -7 12 C-6.01 11.34 -5.02 10.68 -4 10 C-3.28176852 8.11051924 -3.28176852 8.11051924 -2.9375 6 C-2.20501139 2.20501139 -2.20501139 2.20501139 0 0 Z " fill="#014723" transform="translate(57,53)"/>
<path d="M0 0 C4.62 0 9.24 0 14 0 C14.33 0.99 14.66 1.98 15 3 C15 2.01 15 1.02 15 0 C15.99 0 16.98 0 18 0 C18.02686553 1.97909398 18.04633375 3.95828971 18.0625 5.9375 C18.07410156 7.03964844 18.08570312 8.14179687 18.09765625 9.27734375 C18 12 18 12 17 13 C18.26153973 17.77999871 18.26153973 17.77999871 20.1875 22.3125 C20.455625 22.869375 20.72375 23.42625 21 24 C20.67 24.66 20.34 25.32 20 26 C20.99 25.67 21.98 25.34 23 25 C23.99 26.65 24.98 28.3 26 30 C25.01 30.33 24.02 30.66 23 31 C22.31513275 32.32407669 21.65129797 33.65909241 21 35 C19.3125 37.25 19.3125 37.25 17 39 C13.25 39.25 13.25 39.25 10 39 C9.896875 38.071875 9.79375 37.14375 9.6875 36.1875 C8.9929808 32.96745642 8.52259061 31.97420135 6 30 C5.34 30.66 4.68 31.32 4 32 C1.375 32.125 1.375 32.125 -1 32 C2 30 2 30 4 30 C4.08886184 26.80097361 3.91058531 24.07322544 3 21 C1.68 21 0.36 21 -1 21 C-1 19.35 -1 17.7 -1 16 C-1.66 15.67 -2.32 15.34 -3 15 C-2.34 14.34 -1.68 13.68 -1 13 C-0.53513282 9.87803664 -0.53513282 9.87803664 -0.375 6.375 C-0.25125 4.27125 -0.1275 2.1675 0 0 Z " fill="#021008" transform="translate(35,76)"/>
<path d="M0 0 C0 3.63 0 7.26 0 11 C1.65 10.67 3.3 10.34 5 10 C5.33 8.68 5.66 7.36 6 6 C5.34 5.67 4.68 5.34 4 5 C4.66 4.01 5.32 3.02 6 2 C7.50156874 5.00313748 7.09281204 7.79067522 7.0625 11.125 C7.05347656 12.40632813 7.04445312 13.68765625 7.03515625 15.0078125 C7.02355469 15.99523437 7.01195312 16.98265625 7 18 C5 15 5 15 5 12 C1.04 12 -2.92 12 -7 12 C-6.7525 13.299375 -6.7525 13.299375 -6.5 14.625 C-6 18 -6 18 -6.1875 21.125 C-6.24750029 24.10898297 -6.24750029 24.10898297 -4.25 26.4375 C-2.14385268 28.26563273 -2.14385268 28.26563273 0.25 27.75 C0.8275 27.5025 1.405 27.255 2 27 C1.3125 29.375 1.3125 29.375 0 32 C-2.625 33.3125 -2.625 33.3125 -5 34 C-4.34 32.68 -3.68 31.36 -3 30 C-6.41547604 25.92770164 -7.21158499 25.96473584 -13 25 C-12.67 29.29 -12.34 33.58 -12 38 C-18.66979283 40.22326428 -26.15583251 39.01395074 -33 38 C-33 37.01 -33 36.02 -33 35 C-31.02 35.33 -29.04 35.66 -27 36 C-27 32.37 -27 28.74 -27 25 C-28.65 25 -30.3 25 -32 25 C-31.01 23.68 -30.02 22.36 -29 21 C-27.35 21.33 -25.7 21.66 -24 22 C-24.99 21.01 -25.98 20.02 -27 19 C-21.71029841 12.76086479 -8.79987763 0 0 0 Z " fill="#053E21" transform="translate(112,64)"/>
<path d="M0 0 C0.33 0 0.66 0 1 0 C1.33 3.3 1.66 6.6 2 10 C3.98 10 5.96 10 8 10 C8 12.97 8 15.94 8 19 C8.33 19 8.66 19 9 19 C9 16.36 9 13.72 9 11 C10.65 11 12.3 11 14 11 C14 14.3 14 17.6 14 21 C15.98 21 17.96 21 20 21 C20 21.99 20 22.98 20 24 C18.35 24 16.7 24 15 24 C15 27.3 15 30.6 15 34 C14.67 34 14.34 34 14 34 C14 30.7 14 27.4 14 24 C12.35 24 10.7 24 9 24 C9 27.96 9 31.92 9 36 C8.01 35.34 7.02 34.68 6 34 C6.66 34 7.32 34 8 34 C8 30.7 8 27.4 8 24 C6.02 24 4.04 24 2 24 C2 26.97 2 29.94 2 33 C3.485 33.495 3.485 33.495 5 34 C4.01 34 3.02 34 2 34 C1.67 34.99 1.34 35.98 1 37 C-0.29676812 32.38926889 0.28890861 28.66159911 1 24 C-0.65 24 -2.3 24 -4 24 C-3.55296014 28.47883696 -3.55296014 28.47883696 -1 32 C-1.99 32 -2.98 32 -4 32 C-4.33 32.66 -4.66 33.32 -5 34 C-5 32.68 -5 31.36 -5 30 C-5.66 29.67 -6.32 29.34 -7 29 C-6.34 29 -5.68 29 -5 29 C-5 27.35 -5 25.7 -5 24 C-6.04800781 24.12568359 -6.04800781 24.12568359 -7.1171875 24.25390625 C-8.02726562 24.35574219 -8.93734375 24.45757812 -9.875 24.5625 C-10.77992187 24.66691406 -11.68484375 24.77132812 -12.6171875 24.87890625 C-15 25 -15 25 -17 24 C-17 24.66 -17 25.32 -17 26 C-17.99 25.67 -18.98 25.34 -20 25 C-19.01 23.515 -19.01 23.515 -18 22 C-17.731875 21.05125 -17.46375 20.1025 -17.1875 19.125 C-15.75435168 15.35355705 -14.15525246 13.49485078 -11 11 C-8.06349469 10.59025507 -6.64044305 10.67977847 -4 12 C-4 11.34 -4 10.68 -4 10 C-5.32 9.67 -6.64 9.34 -8 9 C-7.04270084 7.87411986 -6.08412105 6.7493285 -5.125 5.625 C-4.59132813 4.99851562 -4.05765625 4.37203125 -3.5078125 3.7265625 C-2.38567993 2.44163349 -1.20628025 1.20628025 0 0 Z " fill="#031D11" transform="translate(71,97)"/>
<path d="M0 0 C0 1.32 0 2.64 0 4 C-2.31 4 -4.62 4 -7 4 C-6.91878906 4.95261719 -6.83757812 5.90523437 -6.75390625 6.88671875 C-6.24787716 16.93501064 -6.24787716 16.93501064 -8.41796875 20.0078125 C-11.4022032 22.13304556 -14.38512843 23.36515685 -18 24 C-18.66 23.67 -19.32 23.34 -20 23 C-20 24.98 -20 26.96 -20 29 C-20.99 29.33 -21.98 29.66 -23 30 C-23.66 34.62 -24.32 39.24 -25 44 C-25.99 44 -26.98 44 -28 44 C-27.83701416 43.28432861 -27.67402832 42.56865723 -27.50610352 41.83129883 C-27.00807929 39.04519803 -26.8858165 36.52537792 -26.90234375 33.69921875 C-26.90556641 32.72275391 -26.90878906 31.74628906 -26.91210938 30.74023438 C-26.92048828 29.73283203 -26.92886719 28.72542969 -26.9375 27.6875 C-26.94201172 26.66076172 -26.94652344 25.63402344 -26.95117188 24.57617188 C-26.96291816 22.05072118 -26.97934435 19.52539095 -27 17 C-28.32 17.33 -29.64 17.66 -31 18 C-25.67543394 11.13411219 -9.48043665 -4.74021832 0 0 Z " fill="#026C35" transform="translate(79,20)"/>
<path d="M0 0 C4.29 0.33 8.58 0.66 13 1 C13 6.28 13 11.56 13 17 C10.69 17.66 8.38 18.32 6 19 C6 27.58 6 36.16 6 45 C3.36 43.35 0.72 41.7 -2 40 C-2 37 -2 37 -1 36 C-0.76807135 34.48530552 -0.58784762 32.96245438 -0.4375 31.4375 C-0.31181641 30.19806641 -0.31181641 30.19806641 -0.18359375 28.93359375 C-0.12300781 28.29550781 -0.06242187 27.65742187 0 27 C-0.66 26.67 -1.32 26.34 -2 26 C-1.67 24.35 -1.34 22.7 -1 21 C-1.99 20.67 -2.98 20.34 -4 20 C-2.68 19.67 -1.36 19.34 0 19 C-0.0868276 16.87422093 -0.1949951 14.74930419 -0.3125 12.625 C-0.37050781 11.44164062 -0.42851563 10.25828125 -0.48828125 9.0390625 C-0.65714844 8.03617188 -0.82601562 7.03328125 -1 6 C-1.99 5.34 -2.98 4.68 -4 4 C-2.68 3.67 -1.36 3.34 0 3 C0 2.01 0 1.02 0 0 Z " fill="#36B975" transform="translate(85,30)"/>
<path d="M0 0 C0.66 0.33 1.32 0.66 2 1 C2.05814085 4.58326501 2.09364357 8.16640838 2.125 11.75 C2.14175781 12.76578125 2.15851562 13.7815625 2.17578125 14.828125 C2.18222656 15.8078125 2.18867187 16.7875 2.1953125 17.796875 C2.20578613 18.69760742 2.21625977 19.59833984 2.22705078 20.52636719 C2 23 2 23 0 27 C-4.95 27 -9.9 27 -15 27 C-15.33 27.66 -15.66 28.32 -16 29 C-15.67 27.02 -15.34 25.04 -15 23 C-14.67 23.99 -14.34 24.98 -14 26 C-13.01 26 -12.02 26 -11 26 C-11 24.35 -11 22.7 -11 21 C-11.99 21.33 -12.98 21.66 -14 22 C-13.40077751 17.97351715 -12.10666692 14.98182467 -10.125 11.4375 C-9.61195312 10.50808594 -9.09890625 9.57867187 -8.5703125 8.62109375 C-4.3247451 1.53458697 -4.3247451 1.53458697 0 0 Z " fill="#044021" transform="translate(51,36)"/>
<path d="M0 0 C10.72624715 0.80952809 20.22472424 4.81352577 29 11 C29 11.33 29 11.66 29 12 C17.12 12 5.24 12 -7 12 C-7 10.02 -7 8.04 -7 6 C-4.69 6 -2.38 6 0 6 C0 4.02 0 2.04 0 0 Z " fill="#26A965" transform="translate(98,18)"/>
<path d="M0 0 C2.78599571 -0.38060051 4.93372751 -0.47962905 7.6875 -0.3125 C8.38939453 -0.28994141 9.09128906 -0.26738281 9.81445312 -0.24414062 C11.5438833 -0.18531647 13.27221438 -0.09563389 15 0 C15.33 0.99 15.66 1.98 16 3 C16.33 3.66 16.66 4.32 17 5 C17 7.31 17 9.62 17 12 C11.06 12 5.12 12 -1 12 C-1.33 14.31 -1.66 16.62 -2 19 C-3.32 19 -4.64 19 -6 19 C-6 18.34 -6 17.68 -6 17 C-5.01 17 -4.02 17 -3 17 C-3 16.01 -3 15.02 -3 14 C-4.98 14 -6.96 14 -9 14 C-9 13.01 -9 12.02 -9 11 C-7.02 11 -5.04 11 -3 11 C-3 10.01 -3 9.02 -3 8 C-3.99 8 -4.98 8 -6 8 C-6 7.34 -6 6.68 -6 6 C-5.01 5.67 -4.02 5.34 -3 5 C-2.60167969 4.16082031 -2.20335937 3.32164063 -1.79296875 2.45703125 C-1.20128906 1.64621094 -0.60960937 0.83539063 0 0 Z " fill="#012110" transform="translate(36,63)"/>
<path d="M0 0 C0.74507812 0.00451172 1.49015625 0.00902344 2.2578125 0.01367188 C4.0885764 0.02540754 5.91929873 0.0433415 7.75 0.0625 C7.75 2.0425 7.75 4.0225 7.75 6.0625 C5.44 6.0625 3.13 6.0625 0.75 6.0625 C0.75 8.0425 0.75 10.0225 0.75 12.0625 C-5.52 12.0625 -11.79 12.0625 -18.25 12.0625 C-18.25 10.0825 -18.25 8.1025 -18.25 6.0625 C-15.94 6.0625 -13.63 6.0625 -11.25 6.0625 C-11.58 4.4125 -11.91 2.7625 -12.25 1.0625 C-8.15996141 -0.08732602 -4.21822949 -0.04844256 0 0 Z " fill="#129651" transform="translate(90.25,17.9375)"/>
<path d="M0 0 C1.98 0 3.96 0 6 0 C6 1.32 6 2.64 6 4 C5.01 4.495 5.01 4.495 4 5 C4.66 5 5.32 5 6 5 C6 13.33333333 6 21.66666667 6 30 C-1.5273523 27.84682713 -1.5273523 27.84682713 -3.5 24.3125 C-3.665 23.549375 -3.83 22.78625 -4 22 C-3.34 22 -2.68 22 -2 22 C-1.505 17.545 -1.505 17.545 -1 13 C-1.94875 13.20625 -2.8975 13.4125 -3.875 13.625 C-4.90625 13.74875 -5.9375 13.8725 -7 14 C-7.66 13.34 -8.32 12.68 -9 12 C-6.47043472 8.9083091 -3.77545388 8.09068668 0 7 C0 4.69 0 2.38 0 0 Z " fill="#169A55" transform="translate(73,31)"/>
<path d="M0 0 C0.33 0 0.66 0 1 0 C1 3.63 1 7.26 1 11 C9.25 11 17.5 11 26 11 C26 7.7 26 4.4 26 1 C26.33 1 26.66 1 27 1 C27 4.3 27 7.6 27 11 C30.96 11 34.92 11 39 11 C39 10.01 39 9.02 39 8 C39.99 8 40.98 8 42 8 C42.495 9.98 42.495 9.98 43 12 C39.45049966 13.16306443 36.44176052 12.92365049 32.75 12.5625 C31.67234375 12.46066406 30.5946875 12.35882813 29.484375 12.25390625 C28.25460938 12.12822266 28.25460938 12.12822266 27 12 C27 13.65 27 15.3 27 17 C28.65 17 30.3 17 32 17 C32 17.33 32 17.66 32 18 C30.35 18 28.7 18 27 18 C27 21.96 27 25.92 27 30 C32.28 30 37.56 30 43 30 C43 30.33 43 30.66 43 31 C29.14 31 15.28 31 1 31 C1 33.64 1 36.28 1 39 C-2.96 38.505 -2.96 38.505 -7 38 C-7 37.67 -7 37.34 -7 37 C-4.69 37 -2.38 37 0 37 C0 35.02 0 33.04 0 31 C-2.31 31 -4.62 31 -7 31 C-7 30.67 -7 30.34 -7 30 C-4.69 30 -2.38 30 0 30 C0 24.06 0 18.12 0 12 C-2.31 12 -4.62 12 -7 12 C-7 11.67 -7 11.34 -7 11 C-4.69 11 -2.38 11 0 11 C0 7.37 0 3.74 0 0 Z M1 12 C1 17.94 1 23.88 1 30 C9.25 30 17.5 30 26 30 C26 24.06 26 18.12 26 12 C17.75 12 9.5 12 1 12 Z " fill="#030D0A" transform="translate(8,109)"/>
<path d="M0 0 C5.94 0 11.88 0 18 0 C18 9 18 9 17 12 C12.38 12 7.76 12 3 12 C2 10 2 10 1.5 7.9375 C1.17692051 6.00759217 1.17692051 6.00759217 0 5 C0 3.35 0 1.7 0 0 Z " fill="#000905" transform="translate(131,76)"/>
<path d="M0 0 C5.94 0 11.88 0 18 0 C18 2.97 18 5.94 18 9 C15.93918639 9.50690584 13.87626474 10.00524619 11.8125 10.5 C10.66394531 10.7784375 9.51539062 11.056875 8.33203125 11.34375 C5 12 5 12 0 12 C0 8.04 0 4.08 0 0 Z " fill="#010704" transform="translate(93,121)"/>
<path d="M0 0 C3.31562557 0.55260426 6.15062207 1.16825705 9 3 C9.33 3.99 9.66 4.98 10 6 C9.01 6.66 8.02 7.32 7 8 C6.74969023 10.58380177 6.74969023 10.58380177 7 13 C6.34 13 5.68 13 5 13 C4.690625 13.61875 4.38125 14.2375 4.0625 14.875 C3.375 16.25 2.6875 17.625 2 19 C1.01 19 0.02 19 -1 19 C-1 19.99 -1 20.98 -1 22 C-2.32 22.33 -3.64 22.66 -5 23 C-4.67 23.99 -4.34 24.98 -4 26 C-4.99 26 -5.98 26 -7 26 C-7 21.71 -7 17.42 -7 13 C-4.69 13 -2.38 13 0 13 C0 12.38511719 0 11.77023438 0 11.13671875 C0 7.42447917 0 3.71223958 0 0 Z " fill="#59DC98" transform="translate(98,49)"/>
<path d="M0 0 C0 1.32 0 2.64 0 4 C-2.31 4 -4.62 4 -7 4 C-7 8.62 -7 13.24 -7 18 C-8.98 18.99 -10.96 19.98 -13 21 C-13 17.7 -13 14.4 -13 11 C-16.3 11 -19.6 11 -23 11 C-18.73715887 6.02668535 -6.60956416 -3.30478208 0 0 Z " fill="#087A3F" transform="translate(79,20)"/>
<path d="M0 0 C0.66 0.33 1.32 0.66 2 1 C2 10.57 2 20.14 2 30 C11.57 30 21.14 30 31 30 C31 30.33 31 30.66 31 31 C25.72 31 20.44 31 15 31 C14.67 32.32 14.34 33.64 14 35 C14 33.68 14 32.36 14 31 C10.04 31 6.08 31 2 31 C2 36.94 2 42.88 2 49 C5.96 49 9.92 49 14 49 C14 47.02 14 45.04 14 43 C14.33 43 14.66 43 15 43 C15 44.98 15 46.96 15 49 C20.28 49 25.56 49 31 49 C31 49.33 31 49.66 31 50 C25.72 50 20.44 50 15 50 C15 52.64 15 55.28 15 58 C14.01 57.34 13.02 56.68 12 56 C12.66 56 13.32 56 14 56 C14 54.02 14 52.04 14 50 C10.04 50 6.08 50 2 50 C2 51.98 2 53.96 2 56 C4.31 56 6.62 56 9 56 C9 56.33 9 56.66 9 57 C6.36 57.33 3.72 57.66 1 58 C1 55.36 1 52.72 1 50 C-2.63 50 -6.26 50 -10 50 C-10 49.67 -10 49.34 -10 49 C-6.37 49 -2.74 49 1 49 C1 43.06 1 37.12 1 31 C-2.63 31 -6.26 31 -10 31 C-10 30.67 -10 30.34 -10 30 C-6.37 30 -2.74 30 1 30 C0.85921577 26.24974777 0.71258487 22.49988167 0.5625 18.75 C0.52318359 17.68652344 0.48386719 16.62304688 0.44335938 15.52734375 C0.40146484 14.50253906 0.35957031 13.47773437 0.31640625 12.421875 C0.27974854 11.47924805 0.24309082 10.53662109 0.20532227 9.56542969 C0.08242701 7.04376382 0.08242701 7.04376382 -0.58227539 4.84863281 C-1 3 -1 3 0 0 Z " fill="#030E0A" transform="translate(148,90)"/>
<path d="M0 0 C0.66 0.33 1.32 0.66 2 1 C-6.91434766 6.42804338 -15.90080228 11.73311104 -24.92559814 16.97531128 C-26.09794501 17.657126 -27.26929743 18.34065357 -28.43963623 19.02590942 C-30.10666665 20.00129328 -31.77787721 20.96952193 -33.44921875 21.9375 C-34.42205811 22.50339844 -35.39489746 23.06929687 -36.3972168 23.65234375 C-38.6527322 24.82019339 -40.51989016 25.53701686 -43 26 C-43 25.34 -43 24.68 -43 24 C-41.68 23.67 -40.36 23.34 -39 23 C-39 22.01 -39 21.02 -39 20 C-38.01 20 -37.02 20 -36 20 C-35.773125 19.443125 -35.54625 18.88625 -35.3125 18.3125 C-32.62094963 13.57024459 -28.73236199 10.56899651 -24 8 C-24 8.99 -24 9.98 -24 11 C-17.77898003 9.80780904 -17.77898003 9.80780904 -13 6 C-11.68 6 -10.36 6 -9 6 C-8.67 5.34 -8.34 4.68 -8 4 C-6.22265625 2.89453125 -6.22265625 2.89453125 -4.0625 1.8125 C-3.35222656 1.44769531 -2.64195312 1.08289062 -1.91015625 0.70703125 C-1.27980469 0.47371094 -0.64945313 0.24039063 0 0 Z " fill="#69EDA8" transform="translate(136,48)"/>
<path d="M0 0 C1.32 0 2.64 0 4 0 C4.10957031 0.75925781 4.21914062 1.51851562 4.33203125 2.30078125 C4.49058594 3.29464844 4.64914063 4.28851563 4.8125 5.3125 C4.96332031 6.29863281 5.11414063 7.28476562 5.26953125 8.30078125 C6.05398243 11.19947518 6.87256733 12.01245332 9 14 C9 14.99 9 15.98 9 17 C7.68 17.33 6.36 17.66 5 18 C5 18.66 5 19.32 5 20 C4.34 20 3.68 20 3 20 C3 22.97 3 25.94 3 29 C0.69 29 -1.62 29 -4 29 C-4 24.71 -4 20.42 -4 16 C-4.66 15.67 -5.32 15.34 -6 15 C-3.36 14.67 -0.72 14.34 2 14 C2.33 13.01 2.66 12.02 3 11 C0.69 11 -1.62 11 -4 11 C-4 10.67 -4 10.34 -4 10 C-1.69 10 0.62 10 3 10 C3 7.03 3 4.06 3 1 C2.01 0.67 1.02 0.34 0 0 Z " fill="#48CB87" transform="translate(95,33)"/>
<path d="M0 0 C0.99 0 1.98 0 3 0 C3 3.96 3 7.92 3 12 C-0.00313748 13.50156874 -2.79067522 13.09281204 -6.125 13.0625 C-7.40632813 13.05347656 -8.68765625 13.04445313 -10.0078125 13.03515625 C-11.48894531 13.01775391 -11.48894531 13.01775391 -13 13 C-10.39375236 20.77610556 -10.39375236 20.77610556 -6.6875 28.0625 C-6.130625 29.031875 -5.57375 30.00125 -5 31 C-5.33 31.66 -5.66 32.32 -6 33 C-6.99 32.01 -7.98 31.02 -9 30 C-9.66 30.66 -10.32 31.32 -11 32 C-13.625 32.125 -13.625 32.125 -16 32 C-13 30 -13 30 -11 30 C-10.91113816 26.80097361 -11.08941469 24.07322544 -12 21 C-13.32 21 -14.64 21 -16 21 C-16 19.35 -16 17.7 -16 16 C-16.66 15.67 -17.32 15.34 -18 15 C-17.34 14.34 -16.68 13.68 -16 13 C-15.83322718 9.41656024 -15.83322718 9.41656024 -16 6 C-15.34 6 -14.68 6 -14 6 C-14 7.98 -14 9.96 -14 12 C-8.555 11.505 -8.555 11.505 -3 11 C-2.690625 10.05125 -2.38125 9.1025 -2.0625 8.125 C-1 5 -1 5 0 3 C0 2.01 0 1.02 0 0 Z " fill="#052013" transform="translate(50,76)"/>
<path d="M0 0 C0 3.96 0 7.92 0 12 C-3.63 12 -7.26 12 -11 12 C-11.33 8.7 -11.66 5.4 -12 2 C-7.72424275 -1.23921004 -5.16347713 -1.11369115 0 0 Z " fill="#00170B" transform="translate(130,63)"/>
<path d="M0 0 C5.9057882 1.55415479 10.97738893 4.59534467 16 8 C16 8.33 16 8.66 16 9 C8.41 9 0.82 9 -7 9 C-7 7.02 -7 5.04 -7 3 C-4.69 3 -2.38 3 0 3 C0 2.01 0 1.02 0 0 Z " fill="#2CAE6A" transform="translate(111,21)"/>
<path d="M0 0 C2.1875 0.4375 2.1875 0.4375 3.1875 1.4375 C3.25976502 3.29037502 3.2713122 5.14583878 3.25 7 C3.24097656 8.01191406 3.23195313 9.02382812 3.22265625 10.06640625 C3.21105469 10.84886719 3.19945313 11.63132812 3.1875 12.4375 C1.56259046 12.46448189 -0.06244633 12.48388757 -1.6875 12.5 C-3.04488281 12.51740234 -3.04488281 12.51740234 -4.4296875 12.53515625 C-6.8125 12.4375 -6.8125 12.4375 -8.8125 11.4375 C-9.28926838 8.73581253 -9.24076678 7.05322362 -7.65234375 4.76953125 C-5.16243384 2.08857966 -3.68575061 0.57333898 0 0 Z " fill="#020B06" transform="translate(62.8125,107.5625)"/>
<path d="M0 0 C1.32 0.33 2.64 0.66 4 1 C4.20625 2.11375 4.4125 3.2275 4.625 4.375 C5.61628301 8.26599195 5.61628301 8.26599195 9.125 9.4375 C10.07375 9.623125 11.0225 9.80875 12 10 C12 10.99 12 11.98 12 13 C7.71 13 3.42 13 -1 13 C-1.33 14.98 -1.66 16.96 -2 19 C-2.33 19 -2.66 19 -3 19 C-3.55353075 5.18223235 -3.55353075 5.18223235 0 0 Z " fill="#126239" transform="translate(68,63)"/>
<path d="M0 0 C3.875 1.875 3.875 1.875 5 3 C5.07325168 5.86267567 5.09238205 8.700719 5.0625 11.5625 C5.05798828 12.36880859 5.05347656 13.17511719 5.04882812 14.00585938 C5.03700518 16.00393756 5.01906914 18.00197783 5 20 C4.67 18.68 4.34 17.36 4 16 C0.7 16 -2.6 16 -6 16 C-6 15.67 -6 15.34 -6 15 C-4.35 15 -2.7 15 -1 15 C-1 13.35 -1 11.7 -1 10 C-2.32 9.67 -3.64 9.34 -5 9 C-4.34 8.34 -3.68 7.68 -3 7 C-3.3185177 4.89179203 -3.3185177 4.89179203 -4 3 C-3.01 3 -2.02 3 -1 3 C-0.67 2.01 -0.34 1.02 0 0 Z " fill="#036E37" transform="translate(61,47)"/>
<path d="M0 0 C0.99 0.33 1.98 0.66 3 1 C2.24203125 2.48113281 2.24203125 2.48113281 1.46875 3.9921875 C0.81228987 5.28635176 0.15605133 6.58062845 -0.5 7.875 C-0.83386719 8.52597656 -1.16773438 9.17695312 -1.51171875 9.84765625 C-3.36843717 13.2524471 -3.36843717 13.2524471 -4 17 C-3.34 17 -2.68 17 -2 17 C-2 18.65 -2 20.3 -2 22 C-7.75 21.25 -7.75 21.25 -10 19 C-9.34 19 -8.68 19 -8 19 C-8 13.72 -8 8.44 -8 3 C-6.02 3 -4.04 3 -2 3 C-1.34 2.67 -0.68 2.34 0 2 C0 1.34 0 0.68 0 0 Z " fill="#030906" transform="translate(42,40)"/>
<path d="M0 0 C0 3.63 0 7.26 0 11 C-4.29 11 -8.58 11 -13 11 C-13 9.02 -13 7.04 -13 5 C-10.69 5 -8.38 5 -6 5 C-6.33 3.35 -6.66 1.7 -7 0 C-3.98968256 -0.93423645 -3.13349732 -1.04449911 0 0 Z " fill="#10934F" transform="translate(85,19)"/>
<path d="M0 0 C0.66 0.33 1.32 0.66 2 1 C2 4.63 2 8.26 2 12 C5.63 12 9.26 12 13 12 C13 12.33 13 12.66 13 13 C9.37 13 5.74 13 2 13 C2.33 19.6 2.66 26.2 3 33 C2.01 33.495 2.01 33.495 1 34 C0.34 30.7 -0.32 27.4 -1 24 C-0.67 24 -0.34 24 0 24 C0.33 20.37 0.66 16.74 1 13 C0.01 13 -0.98 13 -2 13 C-1.67 15.97 -1.34 18.94 -1 22 C-1.33 22 -1.66 22 -2 22 C-2.33 19.03 -2.66 16.06 -3 13 C-7.62 13 -12.24 13 -17 13 C-17 14.98 -17 16.96 -17 19 C-17.33 19 -17.66 19 -18 19 C-18 14.71 -18 10.42 -18 6 C-17.67 6 -17.34 6 -17 6 C-17 7.98 -17 9.96 -17 12 C-12.38 12 -7.76 12 -3 12 C-2.67 11.01 -2.34 10.02 -2 9 C-2 9.99 -2 10.98 -2 12 C-1.01 12 -0.02 12 1 12 C0.67 9.69 0.34 7.38 0 5 C-0.66 5.66 -1.32 6.32 -2 7 C-2.125 4.625 -2.125 4.625 -2 2 C-1.34 1.34 -0.68 0.68 0 0 Z " fill="#0E462A" transform="translate(52,63)"/>
<path d="M0 0 C1.32 0 2.64 0 4 0 C4 3.96 4 7.92 4 12 C2.35 12 0.7 12 -1 12 C-1.33 14.31 -1.66 16.62 -2 19 C-3.32 19 -4.64 19 -6 19 C-6 18.34 -6 17.68 -6 17 C-5.01 17 -4.02 17 -3 17 C-3 16.01 -3 15.02 -3 14 C-4.98 14 -6.96 14 -9 14 C-9 13.01 -9 12.02 -9 11 C-7.02 11 -5.04 11 -3 11 C-3 10.01 -3 9.02 -3 8 C-3.99 8 -4.98 8 -6 8 C-6 7.34 -6 6.68 -6 6 C-5.01 5.67 -4.02 5.34 -3 5 C-2.2884375 3.7315625 -2.2884375 3.7315625 -1.5625 2.4375 C-1.046875 1.633125 -0.53125 0.82875 0 0 Z " fill="#03160D" transform="translate(36,63)"/>
<path d="M0 0 C0.33 0 0.66 0 1 0 C1 3.63 1 7.26 1 11 C2.65 10.34 4.3 9.68 6 9 C7.43088528 11.86177057 6.59991697 13.93375773 6 17 C5.01 17.33 4.02 17.66 3 18 C2.34 22.62 1.68 27.24 1 32 C0.01 32 -0.98 32 -2 32 C-1.83701416 31.28432861 -1.67402832 30.56865723 -1.50610352 29.83129883 C-1.00807929 27.04519803 -0.8858165 24.52537792 -0.90234375 21.69921875 C-0.90556641 20.72275391 -0.90878906 19.74628906 -0.91210938 18.74023438 C-0.92048828 17.73283203 -0.92886719 16.72542969 -0.9375 15.6875 C-0.94201172 14.66076172 -0.94652344 13.63402344 -0.95117188 12.57617188 C-0.96291816 10.05072118 -0.97934435 7.52539095 -1 5 C-2.32 5.33 -3.64 5.66 -5 6 C-3.35830472 3.97945196 -1.69088222 1.97956942 0 0 Z " fill="#166B3F" transform="translate(53,32)"/>
<path d="M0 0 C1.32 0.33 2.64 0.66 4 1 C4 1.66 4 2.32 4 3 C6.31 3 8.62 3 11 3 C9.02 5.64 7.04 8.28 5 11 C7.29629994 12.14814997 9.07698086 12.30769809 11.625 12.5625 C12.44226563 12.64628906 13.25953125 12.73007813 14.1015625 12.81640625 C14.72804688 12.87699219 15.35453125 12.93757813 16 13 C13.57768004 14.53432331 12.41345425 15.0581318 9.52734375 14.65234375 C7.79769264 14.17492874 6.06852594 13.69575534 4.33984375 13.21484375 C1.92241237 12.72068156 1.92241237 12.72068156 0.19140625 14.44140625 C-0.20175781 14.95574219 -0.59492187 15.47007813 -1 16 C-1.66 15.67 -2.32 15.34 -3 15 C-1.68 13.35 -0.36 11.7 1 10 C0.67 9.34 0.34 8.68 0 8 C-0.13415472 5.3276379 -0.04318541 2.67749512 0 0 Z " fill="#07582F" transform="translate(81,73)"/>
<path d="M0 0 C0.66 0.33 1.32 0.66 2 1 C2 8.26 2 15.52 2 23 C1.67 22.34 1.34 21.68 1 21 C-0.65 21 -2.3 21 -4 21 C-3.360625 20.38125 -2.72125 19.7625 -2.0625 19.125 C0.03883584 17.17402388 0.03883584 17.17402388 1 15 C0.01 14.67 -0.98 14.34 -2 14 C-2 12.02 -2 10.04 -2 8 C-3.65 8 -5.3 8 -7 8 C-6.01347016 4.68167234 -5.31268497 3.23451373 -2.5 1.125 C-1.675 0.75375 -0.85 0.3825 0 0 Z " fill="#044C27" transform="translate(51,36)"/>
<path d="M0 0 C0.99 0.66 1.98 1.32 3 2 C2.814375 2.886875 2.62875 3.77375 2.4375 4.6875 C2.01957516 7.85178811 2.19222258 9.94839642 3 13 C0.69 13 -1.62 13 -4 13 C-4 11.35 -4 9.7 -4 8 C-4.99 8.33 -5.98 8.66 -7 9 C-6.5047783 5.33535945 -5.9791794 3.29167646 -3 1 C-2.01 0.67 -1.02 0.34 0 0 Z " fill="#03361C" transform="translate(44,49)"/>
<path d="M0 0 C6.6 0 13.2 0 20 0 C20 1.65 20 3.3 20 5 C16.86650268 6.04449911 16.01031744 5.93423645 13 5 C12.731875 5.639375 12.46375 6.27875 12.1875 6.9375 C11 9 11 9 8 10 C7.67 7.03 7.34 4.06 7 1 C4.69 1 2.38 1 0 1 C0 0.67 0 0.34 0 0 Z " fill="#3BBE7A" transform="translate(91,30)"/>
<path d="M0 0 C1.98 0 3.96 0 6 0 C6 1.32 6 2.64 6 4 C5.01 4.495 5.01 4.495 4 5 C4.66 5 5.32 5 6 5 C6 7.31 6 9.62 6 12 C2.04 12 -1.92 12 -6 12 C-4 10 -2 8 0 6 C0.16681109 2.91652174 0.16681109 2.91652174 0 0 Z " fill="#10934E" transform="translate(73,31)"/>
<path d="M0 0 C0.66 0 1.32 0 2 0 C2.33 1.65 2.66 3.3 3 5 C6.465 4.505 6.465 4.505 10 4 C10.99 5.65 11.98 7.3 13 9 C9.36576791 11.32590854 6.22911669 11.16265833 2 11 C2 9.02 2 7.04 2 5 C0.35 5 -1.3 5 -3 5 C-1.625 2.5 -1.625 2.5 0 0 Z " fill="#50D28F" transform="translate(129,38)"/>
<path d="M0 0 C3.96 0 7.92 0 12 0 C12 1.98 12 3.96 12 6 C8.04 6 4.08 6 0 6 C0 4.02 0 2.04 0 0 Z " fill="#010201" transform="translate(86,5)"/>
<path d="M0 0 C0.33 1.32 0.66 2.64 1 4 C0.01 4.33 -0.98 4.66 -2 5 C-1.401875 5.598125 -0.80375 6.19625 -0.1875 6.8125 C1.54166667 8.54166667 3.27083333 10.27083333 5 12 C0.125 10.125 0.125 10.125 -1 9 C-3.3295947 8.49758678 -3.3295947 8.49758678 -6 9 C-9.04948889 11.4257298 -10.72274901 13.04028505 -11.8125 16.8125 C-11.874375 17.534375 -11.93625 18.25625 -12 19 C-13.32 17.68 -14.64 16.36 -16 15 C-15.52949219 14.61328125 -15.05898438 14.2265625 -14.57421875 13.828125 C-10.67374305 10.5656153 -7.30596266 7.61192532 -5 3 C-3.68352881 2.30062468 -2.34977849 1.63270867 -1 1 C-0.67 0.67 -0.34 0.34 0 0 Z " fill="#0B321F" transform="translate(66,100)"/>
<path d="M0 0 C1.65 0 3.3 0 5 0 C5 4.29 5 8.58 5 13 C3.35 12.67 1.7 12.34 0 12 C0 8.04 0 4.08 0 0 Z " fill="#003017" transform="translate(86,89)"/>
<path d="M0 0 C0 2.97 0 5.94 0 9 C-1.98 9 -3.96 9 -6 9 C-6.103125 7.88625 -6.20625 6.7725 -6.3125 5.625 C-6.539375 4.42875 -6.76625 3.2325 -7 2 C-7.99 1.34 -8.98 0.68 -10 0 C-6.7169902 -1.6415049 -3.57454967 -0.51888624 0 0 Z " fill="#2AAD69" transform="translate(91,34)"/>
<path d="M0 0 C0.33 0 0.66 0 1 0 C1 4.29 1 8.58 1 13 C2.65 13 4.3 13 6 13 C6 13.33 6 13.66 6 14 C4.35 14 2.7 14 1 14 C1 16.64 1 19.28 1 22 C0.67 22 0.34 22 0 22 C0 19.36 0 16.72 0 14 C-7.59 14 -15.18 14 -23 14 C-21.68 13.67 -20.36 13.34 -19 13 C-19 10.36 -19 7.72 -19 5 C-18.34 5 -17.68 5 -17 5 C-17.33 7.64 -17.66 10.28 -18 13 C-12.06 13 -6.12 13 0 13 C0 8.71 0 4.42 0 0 Z " fill="#060F0B" transform="translate(130,126)"/>
<path d="M0 0 C1.65 0 3.3 0 5 0 C5 3.96 5 7.92 5 12 C3.35 12 1.7 12 0 12 C0 8.04 0 4.08 0 0 Z " fill="#012C15" transform="translate(93,89)"/>
<path d="M0 0 C0.8353125 0.86625 0.8353125 0.86625 1.6875 1.75 C4.01729435 4.01682694 6.438491 6.00077347 9 8 C10.66666667 9.33333333 12.33333333 10.66666667 14 12 C11.36 12 8.72 12 6 12 C6 11.34 6 10.68 6 10 C4.68 9.67 3.36 9.34 2 9 C2 10.98 2 12.96 2 15 C1.67 15 1.34 15 1 15 C0.875 8.25 0.875 8.25 2 6 C1.34 6 0.68 6 0 6 C0 4.02 0 2.04 0 0 Z " fill="#108548" transform="translate(79,64)"/>
<path d="M0 0 C0 2.64 0 5.28 0 8 C-2.31 8 -4.62 8 -7 8 C-7.33 6.02 -7.66 4.04 -8 2 C-4.77208445 -0.1519437 -3.71599191 -0.20086443 0 0 Z " fill="#022915" transform="translate(111,67)"/>
<path d="M0 0 C1.69752187 0.25245197 3.38471545 0.57645775 5.0625 0.9375 C5.98160156 1.13214844 6.90070313 1.32679687 7.84765625 1.52734375 C8.91306641 1.76130859 8.91306641 1.76130859 10 2 C10.33 3.32 10.66 4.64 11 6 C7.04 6 3.08 6 -1 6 C-1 1 -1 1 0 0 Z " fill="#1FA05D" transform="translate(100,18)"/>
<path d="M0 0 C0 3.63 0 7.26 0 11 C-1.98 11 -3.96 11 -6 11 C-6.43869957 5.64786526 -6.43869957 5.64786526 -6 3 C-2.34375 0 -2.34375 0 0 0 Z " fill="#001D0E" transform="translate(111,96)"/>
<path d="M0 0 C1.65 0 3.3 0 5 0 C5 3.96 5 7.92 5 12 C3.68 12 2.36 12 1 12 C0.67 8.04 0.34 4.08 0 0 Z " fill="#010604" transform="translate(35,76)"/>
<path d="M0 0 C0.33 0 0.66 0 1 0 C1.04241723 2.33294775 1.04092937 4.66702567 1 7 C0.67 7.33 0.34 7.66 0 8 C-0.04063832 9.66617115 -0.042721 11.33388095 0 13 C-0.66 13 -1.32 13 -2 13 C-2 12.34 -2 11.68 -2 11 C-2.66 11 -3.32 11 -4 11 C-4 10.34 -4 9.68 -4 9 C-5.98 9.33 -7.96 9.66 -10 10 C-9.01 8.35 -8.02 6.7 -7 5 C-7.66 4.67 -8.32 4.34 -9 4 C-7.576875 4.2784375 -7.576875 4.2784375 -6.125 4.5625 C-3.10131207 5.28686632 -3.10131207 5.28686632 -1 4 C-0.34786708 1.97536745 -0.34786708 1.97536745 0 0 Z " fill="#49CC88" transform="translate(111,30)"/>
<path d="M0 0 C3.3 0 6.6 0 10 0 C10.33 1.65 10.66 3.3 11 5 C7.37 5 3.74 5 0 5 C0 3.35 0 1.7 0 0 Z " fill="#013E1D" transform="translate(54,70)"/>
<path d="M0 0 C1.65 0 3.3 0 5 0 C5.33 0.99 5.66 1.98 6 3 C6.33 3.66 6.66 4.32 7 5 C7.04022391 7.3329866 7.04320247 9.66706666 7 12 C6.01 12 5.02 12 4 12 C3.67 10.35 3.34 8.7 3 7 C1.02 7 -0.96 7 -3 7 C-2.01 6.34 -1.02 5.68 0 5 C0.25030977 2.41619823 0.25030977 2.41619823 0 0 Z " fill="#023018" transform="translate(46,63)"/>
<path d="M0 0 C0.99 0.33 1.98 0.66 3 1 C0.06918424 2.84418895 -2.8706807 4.67342417 -5.8125 6.5 C-6.64587891 7.02464844 -7.47925781 7.54929687 -8.33789062 8.08984375 C-9.14033203 8.58613281 -9.94277344 9.08242187 -10.76953125 9.59375 C-11.87711792 10.28500977 -11.87711792 10.28500977 -13.00708008 10.99023438 C-15 12 -15 12 -18 12 C-18 11.34 -18 10.68 -18 10 C-16.68 9.67 -15.36 9.34 -14 9 C-14 8.01 -14 7.02 -14 6 C-13.24074219 5.73445313 -12.48148437 5.46890625 -11.69921875 5.1953125 C-10.70535156 4.84210938 -9.71148437 4.48890625 -8.6875 4.125 C-7.70136719 3.77695313 -6.71523437 3.42890625 -5.69921875 3.0703125 C-2.84405623 2.04694076 -2.84405623 2.04694076 0 0 Z " fill="#7EE9B4" transform="translate(111,62)"/>
<path d="M0 0 C0.33 1.98 0.66 3.96 1 6 C-2 8 -2 8 -4.1875 7.625 C-4.785625 7.41875 -5.38375 7.2125 -6 7 C-6.33 5.02 -6.66 3.04 -7 1 C-4 0 -4 0 0 0 Z " fill="#89F4BB" transform="translate(107,39)"/>
<path d="M0 0 C0.33 0 0.66 0 1 0 C1.33 1.98 1.66 3.96 2 6 C0.37554381 6.98006859 -1.24958261 7.95902636 -2.875 8.9375 C-3.77992187 9.48277344 -4.68484375 10.02804688 -5.6171875 10.58984375 C-7.05201636 11.43898017 -8.50875448 12.25437724 -10 13 C-10 11.02 -10 9.04 -10 7 C-9.01 7 -8.02 7 -7 7 C-6.67 6.01 -6.34 5.02 -6 4 C-4.35 4.33 -2.7 4.66 -1 5 C-0.67 3.35 -0.34 1.7 0 0 Z " fill="#041109" transform="translate(66,17)"/>
<path d="M0 0 C0.66 0.33 1.32 0.66 2 1 C-0.35360118 2.41761307 -2.70786228 3.8341104 -5.0625 5.25 C-5.71927734 5.64574219 -6.37605469 6.04148437 -7.05273438 6.44921875 C-9.03177242 7.63859137 -11.01488491 8.82080141 -13 10 C-13.65597168 10.39251953 -14.31194336 10.78503906 -14.98779297 11.18945312 C-19.76745756 14 -19.76745756 14 -22 14 C-22 13.34 -22 12.68 -22 12 C-21.071875 11.566875 -20.14375 11.13375 -19.1875 10.6875 C-16.07187582 9.25030123 -16.07187582 9.25030123 -14.375 7.3125 C-13 6 -13 6 -9 6 C-8.67 5.34 -8.34 4.68 -8 4 C-6.22265625 2.89453125 -6.22265625 2.89453125 -4.0625 1.8125 C-3.35222656 1.44769531 -2.64195312 1.08289062 -1.91015625 0.70703125 C-1.27980469 0.47371094 -0.64945313 0.24039063 0 0 Z " fill="#74E6AE" transform="translate(136,48)"/>
<path d="M0 0 C3.3 0 6.6 0 10 0 C10.33 1.65 10.66 3.3 11 5 C9.35 5 7.7 5 6 5 C6 3.68 6 2.36 6 1 C5.34 1 4.68 1 4 1 C4 2.32 4 3.64 4 5 C2.35 5 0.7 5 -1 5 C-0.67 3.35 -0.34 1.7 0 0 Z " fill="#020201" transform="translate(87,134)"/>
<path d="M0 0 C1.32 0 2.64 0 4 0 C3.67 1.98 3.34 3.96 3 6 C4.65 6 6.3 6 8 6 C8 7.98 8 9.96 8 12 C6.02 12 4.04 12 2 12 C2 8.37 2 4.74 2 1 C1.34 0.67 0.68 0.34 0 0 Z " fill="#1A9B58" transform="translate(83,18)"/>
<path d="M0 0 C1.65 0 3.3 0 5 0 C5 1.32 5 2.64 5 4 C5.66 4 6.32 4 7 4 C7 2.68 7 1.36 7 0 C8.65 0 10.3 0 12 0 C11.67 1.65 11.34 3.3 11 5 C7.7 5 4.4 5 1 5 C0.67 3.35 0.34 1.7 0 0 Z " fill="#020201" transform="translate(86,12)"/>
<path d="M0 0 C1.65 0 3.3 0 5 0 C5 2.97 5 5.94 5 9 C3.35 9 1.7 9 0 9 C0 6.03 0 3.06 0 0 Z " fill="#00180B" transform="translate(86,108)"/>
<path d="M0 0 C2.3431213 0.25561323 4.67843403 0.59270772 7 1 C7.33 1.66 7.66 2.32 8 3 C7.01 3.99 6.02 4.98 5 6 C4.01 5.67 3.02 5.34 2 5 C1.67 5.66 1.34 6.32 1 7 C0.01 7 -0.98 7 -2 7 C-2.33 8.65 -2.66 10.3 -3 12 C-4 10 -4 10 -4 6 C-2.68 6 -1.36 6 0 6 C0 4.02 0 2.04 0 0 Z " fill="#0F7F45" transform="translate(59,43)"/>
<path d="M0 0 C1.98 0 3.96 0 6 0 C6 2.31 6 4.62 6 7 C4.34385343 7.38218767 2.67542976 7.71395102 1 8 C0 7 0 7 -0.0625 3.4375 C-0.041875 2.303125 -0.02125 1.16875 0 0 Z " fill="#020905" transform="translate(73,12)"/>
<path d="M0 0 C0.33 0 0.66 0 1 0 C1.04898438 1.26457031 1.09796875 2.52914062 1.1484375 3.83203125 C1.2234738 5.49220947 1.29902127 7.15236464 1.375 8.8125 C1.4059375 9.64587891 1.436875 10.47925781 1.46875 11.33789062 C1.50742188 12.14033203 1.54609375 12.94277344 1.5859375 13.76953125 C1.6173584 14.50792236 1.6487793 15.24631348 1.68115234 16.00708008 C1.90834614 18.31349588 1.90834614 18.31349588 4 21 C1.625 20.8125 1.625 20.8125 -1 20 C-2.25 17.625 -2.25 17.625 -3 15 C-3.33 14.01 -3.66 13.02 -4 12 C-2.68 12 -1.36 12 0 12 C0 8.04 0 4.08 0 0 Z " fill="#0A4728" transform="translate(72,76)"/>
<path d="M0 0 C1.65 0 3.3 0 5 0 C5.25 5.625 5.25 5.625 3 9 C2.34 9 1.68 9 1 9 C0.67 10.32 0.34 11.64 0 13 C0 8.71 0 4.42 0 0 Z " fill="#51D591" transform="translate(91,62)"/>
<path d="M0 0 C2.475 0.99 2.475 0.99 5 2 C4.835 2.763125 4.67 3.52625 4.5 4.3125 C3.90854604 7.03596236 3.90854604 7.03596236 4 10 C1.525 9.01 1.525 9.01 -1 8 C-1.04241723 5.66705225 -1.04092937 3.33297433 -1 1 C-0.67 0.67 -0.34 0.34 0 0 Z " fill="#03592C" transform="translate(55,30)"/>
<path d="M0 0 C2.31 0 4.62 0 7 0 C7 1.98 7 3.96 7 6 C4.69 6 2.38 6 0 6 C0 4.02 0 2.04 0 0 Z " fill="#068744" transform="translate(72,24)"/>
<path d="M0 0 C2.475 0.99 2.475 0.99 5 2 C5 4.31 5 6.62 5 9 C3.35 9 1.7 9 0 9 C0 6.03 0 3.06 0 0 Z " fill="#020F08" transform="translate(67,111)"/>
<path d="M0 0 C1.6875 1.25 1.6875 1.25 2.6875 3.25 C1.0375 3.25 -0.6125 3.25 -2.3125 3.25 C-2.3125 7.21 -2.3125 11.17 -2.3125 15.25 C-2.6425 15.25 -2.9725 15.25 -3.3125 15.25 C-3.3125 11.29 -3.3125 7.33 -3.3125 3.25 C-4.9625 3.25 -6.6125 3.25 -8.3125 3.25 C-8.3125 2.59 -8.3125 1.93 -8.3125 1.25 C-2.93226549 -0.95100503 -2.93226549 -0.95100503 0 0 Z " fill="#01371C" transform="translate(101.3125,85.75)"/>
<path d="M0 0 C1.65 0 3.3 0 5 0 C5 2.31 5 4.62 5 7 C3.35 7.66 1.7 8.32 0 9 C0 6.03 0 3.06 0 0 Z " fill="#028341" transform="translate(67,31)"/>
<path d="M0 0 C0.99 0 1.98 0 3 0 C3 0.66 3 1.32 3 2 C2.34 2 1.68 2 1 2 C1 2.99 1 3.98 1 5 C2.98 5 4.96 5 7 5 C7 5.99 7 6.98 7 8 C5.02 8 3.04 8 1 8 C1 8.99 1 9.98 1 11 C1.66 11 2.32 11 3 11 C3 11.66 3 12.32 3 13 C2.01 13 1.02 13 0 13 C0 8.71 0 4.42 0 0 Z " fill="#031B0F" transform="translate(150,69)"/>
<path d="M0 0 C2.31 0 4.62 0 7 0 C5.52307692 4.67692308 5.52307692 4.67692308 2.875 6.3125 C1.946875 6.6528125 1.946875 6.6528125 1 7 C0 6 0 6 -0.0625 2.9375 C-0.041875 1.968125 -0.02125 0.99875 0 0 Z " fill="#010503" transform="translate(131,108)"/>
<path d="M0 0 C1.32 0.33 2.64 0.66 4 1 C4 1.66 4 2.32 4 3 C4.66 3 5.32 3 6 3 C6 4.65 6 6.3 6 8 C0.25 7.25 0.25 7.25 -2 5 C-1.34 5 -0.68 5 0 5 C0 3.35 0 1.7 0 0 Z " fill="#031A0D" transform="translate(34,54)"/>
<path d="M0 0 C1.65 0 3.3 0 5 0 C5 1.98 5 3.96 5 6 C3.35 6.33 1.7 6.66 0 7 C0 4.69 0 2.38 0 0 Z " fill="#010402" transform="translate(112,121)"/>
<path d="M0 0 C1.98 0 3.96 0 6 0 C6 2.31 6 4.62 6 7 C4.02 6.34 2.04 5.68 0 5 C0 3.35 0 1.7 0 0 Z " fill="#01180C" transform="translate(73,108)"/>
<path d="M0 0 C0.33 0 0.66 0 1 0 C1 3.63 1 7.26 1 11 C-0.65 11 -2.3 11 -4 11 C-3.21681311 7.08406554 -1.60820142 3.63593365 0 0 Z " fill="#000C05" transform="translate(129,96)"/>
<path d="M0 0 C1.98 0 3.96 0 6 0 C6.33 1.65 6.66 3.3 7 5 C4.69 5 2.38 5 0 5 C0 3.35 0 1.7 0 0 Z " fill="#002D16" transform="translate(40,57)"/>
<path d="M0 0 C1.65 0 3.3 0 5 0 C5 1.65 5 3.3 5 5 C4.01 5.33 3.02 5.66 2 6 C1.67 7.65 1.34 9.3 1 11 C0.67 11 0.34 11 0 11 C0 7.37 0 3.74 0 0 Z " fill="#005C2C" transform="translate(54,44)"/>
<path d="M0 0 C1.32 0.33 2.64 0.66 4 1 C4 2.98 4 4.96 4 7 C2.02 7 0.04 7 -2 7 C-1.34 4.69 -0.68 2.38 0 0 Z " fill="#026A34" transform="translate(68,63)"/>
<path d="M0 0 C1.98 1.65 3.96 3.3 6 5 C5.01 6.485 5.01 6.485 4 8 C2.68 8 1.36 8 0 8 C0 5.36 0 2.72 0 0 Z " fill="#013A1A" transform="translate(93,78)"/>
<path d="M0 0 C1.98 0 3.96 0 6 0 C6 1.65 6 3.3 6 5 C4.02 5 2.04 5 0 5 C0 3.35 0 1.7 0 0 Z " fill="#004F26" transform="translate(66,70)"/>
<path d="M0 0 C0 1.32 0 2.64 0 4 C0.66 4 1.32 4 2 4 C2.33 5.65 2.66 7.3 3 9 C1.68381002 8.21448343 0.37214772 7.4213763 -0.9375 6.625 C-1.66839844 6.18414062 -2.39929688 5.74328125 -3.15234375 5.2890625 C-5 4 -5 4 -6 2 C-2.25 0 -2.25 0 0 0 Z " fill="#29AC68" transform="translate(88,66)"/>
<path d="M0 0 C4.29 0.33 8.58 0.66 13 1 C13 1.66 13 2.32 13 3 C8.71 3 4.42 3 0 3 C0 2.01 0 1.02 0 0 Z " fill="#2BAE69" transform="translate(85,30)"/>
<path d="M0 0 C0.66 0.33 1.32 0.66 2 1 C2 2.65 2 4.3 2 6 C-0.31 6 -2.62 6 -5 6 C-5 5.01 -5 4.02 -5 3 C-2.625 1.25 -2.625 1.25 0 0 Z " fill="#046332" transform="translate(64,24)"/>
<path d="M0 0 C1.98 0.66 3.96 1.32 6 2 C6 3.32 6 4.64 6 6 C4.02 6 2.04 6 0 6 C0 4.02 0 2.04 0 0 Z " fill="#011007" transform="translate(73,114)"/>
<path d="M0 0 C0 2.64 0 5.28 0 8 C-1.65 7.67 -3.3 7.34 -5 7 C-5 4 -5 4 -3.0625 1.8125 C-1 0 -1 0 0 0 Z " fill="#01421F" transform="translate(91,78)"/>
<path d="M0 0 C2.31 0 4.62 0 7 0 C6.67 1.32 6.34 2.64 6 4 C4.02 4 2.04 4 0 4 C-0.33 3.34 -0.66 2.68 -1 2 C-0.67 1.34 -0.34 0.68 0 0 Z " fill="#3CBF7B" transform="translate(91,44)"/>
<path d="M0 0 C1.32 0 2.64 0 4 0 C4 1.98 4 3.96 4 6 C2.35 6 0.7 6 -1 6 C-0.67 4.02 -0.34 2.04 0 0 Z " fill="#0A8D49" transform="translate(87,18)"/>
<path d="M0 0 C3 1 3 1 4.1875 3.0625 C4.455625 3.701875 4.72375 4.34125 5 5 C3.35 6.32 1.7 7.64 0 9 C0 6.03 0 3.06 0 0 Z " fill="#012913" transform="translate(67,90)"/>
<path d="M0 0 C2.0625 0.4375 2.0625 0.4375 4 1 C4 2.65 4 4.3 4 6 C2.35 6 0.7 6 -1 6 C-1.042721 4.33388095 -1.04063832 2.66617115 -1 1 C-0.67 0.67 -0.34 0.34 0 0 Z " fill="#179754" transform="translate(100,18)"/>
<path d="M0 0 C1.65 0 3.3 0 5 0 C5 1.98 5 3.96 5 6 C3.35 6 1.7 6 0 6 C0.33 5.34 0.66 4.68 1 4 C0.67 3.67 0.34 3.34 0 3 C0 2.01 0 1.02 0 0 Z " fill="#010301" transform="translate(80,12)"/>
<path d="M0 0 C0 1.98 0 3.96 0 6 C-1.65 6 -3.3 6 -5 6 C-5 4.35 -5 2.7 -5 1 C-3 0 -3 0 0 0 Z " fill="#010301" transform="translate(85,133)"/>
<path d="M0 0 C2.64 0 5.28 0 8 0 C5.47211993 2.79872437 3.79588866 4.45773019 0 5 C0 3.35 0 1.7 0 0 Z " fill="#020603" transform="translate(118,121)"/>
<path d="M0 0 C0.66 0.33 1.32 0.66 2 1 C1.67 1.33 1.34 1.66 1 2 C2.32 2.33 3.64 2.66 5 3 C5.33 2.01 5.66 1.02 6 0 C6 0.99 6 1.98 6 3 C7.98 3 9.96 3 12 3 C12 3.33 12 3.66 12 4 C9.87631556 4.22134176 7.75095976 4.42670007 5.625 4.625 C4.44164063 4.74101563 3.25828125 4.85703125 2.0390625 4.9765625 C1.03617187 4.98429687 0.03328125 4.99203125 -1 5 C-1.66 4.34 -2.32 3.68 -3 3 C-2.01 2.01 -1.02 1.02 0 0 Z " fill="#1D9E5B" transform="translate(67,40)"/>
<path d="M0 0 C0.66 0.66 1.32 1.32 2 2 C1.34 3.98 0.68 5.96 0 8 C-1.65 8 -3.3 8 -5 8 C-5 6.68 -5 5.36 -5 4 C-3.68 4 -2.36 4 -1 4 C-0.67 2.68 -0.34 1.36 0 0 Z " fill="#4DD18C" transform="translate(117,35)"/>
<path d="M0 0 C0.99 0.33 1.98 0.66 3 1 C3 2.65 3 4.3 3 6 C1.35 6 -0.3 6 -2 6 C-2 4.35 -2 2.7 -2 1 C-1.34 0.67 -0.68 0.34 0 0 Z " fill="#048542" transform="translate(82,18)"/>
<path d="M0 0 C1.65 0 3.3 0 5 0 C5 1.65 5 3.3 5 5 C3.35 5 1.7 5 0 5 C0 3.35 0 1.7 0 0 Z " fill="#01220F" transform="translate(80,102)"/>
<path d="M0 0 C1.65 0 3.3 0 5 0 C5 1.65 5 3.3 5 5 C3.35 5 1.7 5 0 5 C0 3.35 0 1.7 0 0 Z " fill="#013218" transform="translate(54,70)"/>
<path d="M0 0 C1.65 0 3.3 0 5 0 C5 1.65 5 3.3 5 5 C3.35 5 1.7 5 0 5 C0 3.35 0 1.7 0 0 Z " fill="#010C07" transform="translate(35,70)"/>
<path d="M0 0 C1.65 0.33 3.3 0.66 5 1 C4.25 3.9375 4.25 3.9375 3 7 C0.875 7.875 0.875 7.875 -1 8 C-0.67 8.99 -0.34 9.98 0 11 C-0.66 11 -1.32 11 -2 11 C-2 9.68 -2 8.36 -2 7 C-1.34 7 -0.68 7 0 7 C0.66 5.02 1.32 3.04 2 1 C1.34 0.67 0.68 0.34 0 0 Z " fill="#64E3A1" transform="translate(94,64)"/>
<path d="M0 0 C3.24208567 0.35049575 4.61527704 0.56221181 6.8125 3.0625 C7.204375 3.701875 7.59625 4.34125 8 5 C6.02 5.33 4.04 5.66 2 6 C1.34 4.02 0.68 2.04 0 0 Z " fill="#0D904C" transform="translate(70,58)"/>
<path d="M0 0 C2.64 0 5.28 0 8 0 C8 1.65 8 3.3 8 5 C5.04590299 3.62845496 2.55991624 2.01136276 0 0 Z " fill="#040503" transform="translate(58,121)"/>
<path d="M0 0 C2.475 0.495 2.475 0.495 5 1 C5 2.65 5 4.3 5 6 C3.68 6 2.36 6 1 6 C0.67 4.02 0.34 2.04 0 0 Z " fill="#023418" transform="translate(67,82)"/>
<path d="M0 0 C1.77706209 2.66559313 2.87548273 5.0280615 4 8 C2.68 8.99 1.36 9.98 0 11 C0 7.37 0 3.74 0 0 Z " fill="#024924" transform="translate(79,76)"/>
<path d="M0 0 C0.99 0.33 1.98 0.66 3 1 C1.68 3.64 0.36 6.28 -1 9 C-1.99 7.68 -2.98 6.36 -4 5 C-3.34 4.54625 -2.68 4.0925 -2 3.625 C-1.34 3.08875 -0.68 2.5525 0 2 C0 1.34 0 0.68 0 0 Z " fill="#05180D" transform="translate(42,40)"/>
<path d="M0 0 C0.99 0.495 0.99 0.495 2 1 C4.09821215 0.60061233 4.09821215 0.60061233 6 0 C6.33 1.32 6.66 2.64 7 4 C2.25 5.125 2.25 5.125 0 4 C0 2.68 0 1.36 0 0 Z " fill="#68E5A3" transform="translate(100,40)"/>
<path d="M0 0 C0.99 0.33 1.98 0.66 3 1 C2.67 1.99 2.34 2.98 2 4 C-2.455 4.495 -2.455 4.495 -7 5 C-4.702779 3.25728062 -2.40133271 1.60088848 0 0 Z " fill="#102E1E" transform="translate(121,58)"/>
<path d="M0 0 C0.99 0 1.98 0 3 0 C3.66 2.31 4.32 4.62 5 7 C3.68 7 2.36 7 1 7 C1 5.35 1 3.7 1 2 C0.34 1.67 -0.32 1.34 -1 1 C-0.67 0.67 -0.34 0.34 0 0 Z " fill="#04170E" transform="translate(33,90)"/>
<path d="M0 0 C-3.32307692 3.93846154 -3.32307692 3.93846154 -6.75 4.25 C-7.4925 4.1675 -8.235 4.085 -9 4 C-9.33 3.34 -9.66 2.68 -10 2 C-8.71211992 1.46987262 -7.41953322 0.9511671 -6.125 0.4375 C-5.40570313 0.14746094 -4.68640625 -0.14257812 -3.9453125 -0.44140625 C-2 -1 -2 -1 0 0 Z " fill="#0C743E" transform="translate(76,21)"/>
<path d="M0 0 C0.66 0.66 1.32 1.32 2 2 C2.66 1.34 3.32 0.68 4 0 C4.66 1.32 5.32 2.64 6 4 C3.69 4.33 1.38 4.66 -1 5 C-1.33 4.01 -1.66 3.02 -2 2 C-1.34 1.34 -0.68 0.68 0 0 Z " fill="#082214" transform="translate(131,117)"/>
<path d="M0 0 C1.65 0 3.3 0 5 0 C5 1.32 5 2.64 5 4 C3.35 4 1.7 4 0 4 C0 2.68 0 1.36 0 0 Z " fill="#01200F" transform="translate(93,103)"/>
<path d="M0 0 C1.65 0 3.3 0 5 0 C5 1.32 5 2.64 5 4 C3.35 4 1.7 4 0 4 C0 2.68 0 1.36 0 0 Z " fill="#012110" transform="translate(86,103)"/>
<path d="M0 0 C0.66 0 1.32 0 2 0 C2.33 2.64 2.66 5.28 3 8 C1.68 7.34 0.36 6.68 -1 6 C-1.042721 4.33388095 -1.04063832 2.66617115 -1 1 C-0.67 0.67 -0.34 0.34 0 0 Z " fill="#010602" transform="translate(109,12)"/>
<path d="M0 0 C0.1875 2.875 0.1875 2.875 0 6 C-0.99 6.66 -1.98 7.32 -3 8 C-3 5.69 -3 3.38 -3 1 C-1 0 -1 0 0 0 Z " fill="#031D0F" transform="translate(134,80)"/>
<path d="M0 0 C1.98 0 3.96 0 6 0 C6 0.99 6 1.98 6 3 C4.02 3 2.04 3 0 3 C0 2.01 0 1.02 0 0 Z " fill="#032A14" transform="translate(27,74)"/>
<path d="M0 0 C1.98 0.66 3.96 1.32 6 2 C6 2.66 6 3.32 6 4 C4.02 4 2.04 4 0 4 C0 2.68 0 1.36 0 0 Z " fill="#01592B" transform="translate(73,71)"/>
<path d="M0 0 C1.32 1.32 2.64 2.64 4 4 C3.34 5.32 2.68 6.64 2 8 C2 7.34 2 6.68 2 6 C1.34 6 0.68 6 0 6 C0 4.02 0 2.04 0 0 Z " fill="#119350" transform="translate(79,64)"/>
<path d="M0 0 C2.64 0 5.28 0 8 0 C7.67 0.99 7.34 1.98 7 3 C4.69 2.34 2.38 1.68 0 1 C0 0.67 0 0.34 0 0 Z " fill="#026F37" transform="translate(73,70)"/>
</svg>
